<?xml version="1.0" encoding="UTF-8" standalone="no"?>
<!DOCTYPE svg PUBLIC "-//W3C//DTD SVG 1.1//EN" "http://www.w3.org/Graphics/SVG/1.1/DTD/svg11.dtd">
<svg width="100%" height="100%" viewBox="0 0 64 64" version="1.1" xmlns="http://www.w3.org/2000/svg" xmlns:xlink="http://www.w3.org/1999/xlink" xml:space="preserve" xmlns:serif="http://www.serif.com/" style="fill-rule:evenodd;clip-rule:evenodd;stroke-linejoin:round;stroke-miterlimit:2;">
    <g transform="matrix(1.41915,0,0,1.41915,-13.3764,-13.8495)">
        <g>
            <g transform="matrix(0.4245,0,0,0.4245,8.24219,8.67809)">
                <path d="M34.066,25.714C34.687,27.733 36.267,29.313 38.286,29.934C39.573,30.33 41.038,30.781 42.271,31.16C42.639,31.274 42.891,31.614 42.891,32C42.891,32.386 42.639,32.726 42.271,32.84C41.038,33.219 39.573,33.67 38.286,34.066C36.267,34.687 34.687,36.267 34.066,38.286C33.67,39.573 33.219,41.038 32.84,42.271C32.726,42.639 32.386,42.891 32,42.891C31.614,42.891 31.274,42.639 31.16,42.271C30.781,41.038 30.33,39.573 29.934,38.286C29.313,36.267 27.733,34.687 25.714,34.066C24.427,33.67 22.962,33.219 21.729,32.84C21.361,32.726 21.109,32.386 21.109,32C21.109,31.614 21.361,31.274 21.729,31.16C22.962,30.781 24.427,30.33 25.714,29.934C27.733,29.313 29.313,27.733 29.934,25.714C30.33,24.427 30.781,22.962 31.16,21.729C31.274,21.361 31.614,21.109 32,21.109C32.386,21.109 32.726,21.361 32.84,21.729C33.219,22.962 33.67,24.427 34.066,25.714Z" style="fill:rgb(170,161,136);stroke:rgb(141,149,143);stroke-width:0.43px;"/>
            </g>
            <g transform="matrix(0.624458,0,0,0.624458,19.5404,19.7712)">
                <path d="M34.384,26.747C34.806,28.12 35.88,29.194 37.253,29.616C39.019,30.16 41.475,30.915 43.145,31.429C43.395,31.506 43.566,31.738 43.566,32C43.566,32.262 43.395,32.494 43.145,32.571C41.475,33.085 39.019,33.84 37.253,34.384C35.88,34.806 34.806,35.88 34.384,37.253C33.84,39.019 33.085,41.475 32.571,43.145C32.494,43.395 32.262,43.566 32,43.566C31.738,43.566 31.506,43.395 31.429,43.145C30.915,41.475 30.16,39.019 29.616,37.253C29.194,35.88 28.12,34.806 26.747,34.384C24.981,33.84 22.525,33.085 20.855,32.571C20.605,32.494 20.434,32.262 20.434,32C20.434,31.738 20.605,31.506 20.855,31.429C22.525,30.915 24.981,30.16 26.747,29.616C28.12,29.194 29.194,28.12 29.616,26.747C30.16,24.981 30.915,22.525 31.429,20.855C31.506,20.605 31.738,20.434 32,20.434C32.262,20.434 32.494,20.605 32.571,20.855C33.085,22.525 33.84,24.981 34.384,26.747Z" style="fill:rgb(162,160,149);"/>
            </g>
            <g transform="matrix(1.11045,0,0,1.11045,-3.53452,-3.53452)">
                <path d="M34.679,27.707C34.917,28.479 35.521,29.083 36.293,29.321C38.269,29.929 42.108,31.11 43.957,31.679C44.098,31.722 44.194,31.853 44.194,32C44.194,32.147 44.098,32.278 43.957,32.321C42.108,32.89 38.269,34.071 36.293,34.679C35.521,34.917 34.917,35.521 34.679,36.293C34.071,38.269 32.89,42.108 32.321,43.957C32.278,44.098 32.147,44.194 32,44.194C31.853,44.194 31.722,44.098 31.679,43.957C31.11,42.108 29.929,38.269 29.321,36.293C29.083,35.521 28.479,34.917 27.707,34.679C25.731,34.071 21.892,32.89 20.043,32.321C19.902,32.278 19.806,32.147 19.806,32C19.806,31.853 19.902,31.722 20.043,31.679C21.892,31.11 25.731,29.929 27.707,29.321C28.479,29.083 29.083,28.479 29.321,27.707C29.929,25.731 31.11,21.892 31.679,20.043C31.722,19.902 31.853,19.806 32,19.806C32.147,19.806 32.278,19.902 32.321,20.043C32.89,21.892 34.071,25.731 34.679,27.707Z" style="fill:rgb(211,188,142);stroke:rgb(136,140,137);stroke-width:0.17px;stroke-linejoin:miter;"/>
            </g>
        </g>
    </g>
</svg>
