<?xml version="1.0" encoding="UTF-8"?>
<!DOCTYPE svg PUBLIC "-//W3C//DTD SVG 1.1//EN" "http://www.w3.org/Graphics/SVG/1.1/DTD/svg11.dtd">
<!-- Creator: CorelDRAW 2018 (64-Bit) -->
<svg xmlns="http://www.w3.org/2000/svg" xml:space="preserve" width="86.6423mm" height="86.6423mm" version="1.1" style="shape-rendering:geometricPrecision; text-rendering:geometricPrecision; image-rendering:optimizeQuality; fill-rule:evenodd; clip-rule:evenodd"
viewBox="0 0 4095.75 4095.75"
 xmlns:xlink="http://www.w3.org/1999/xlink">
 <defs>
  <style type="text/css">
   <![CDATA[
    .str0 {stroke:white;stroke-width:23.64;stroke-miterlimit:22.9256;stroke-opacity:0.501961}
    .fil2 {fill:none}
    .fil1 {fill:white}
    .fil0 {fill:white;fill-opacity:0.501961}
   ]]>
  </style>
 </defs>
 <g id="Layer_x0020_1">
  <metadata id="CorelCorpID_0Corel-Layer"/>
  <path class="fil0" d="M605.76 1419.94l258.29 258.28 92.84 92.84 814.18 -814.18 -351.13 -351.13 605.76 -605.76 621.84 621.84 -269.27 269.27 -33.62 33.62 826.38 826.38 206.39 -206.38 96.5 -96.5 621.84 621.84 -605.76 605.76 -351.13 -351.13 -814.18 814.18 34.98 34.98 316.15 316.15 -605.76 605.76 -621.84 -621.84 335.05 -335.05 -826.39 -826.38 -74.25 74.25 -260.79 260.79 -621.84 -621.84 605.76 -605.76zm1468.18 -224.5l-32.16 32.16 -814.18 814.18 826.38 826.39 814.18 -814.18 32.16 -32.16 -826.39 -826.39z"/>
  <path class="fil1" d="M1924.85 1823.66l119.81 0c126.9,-113.7 319.99,-376.51 305.07,-420.56 -22.64,-66.77 -248.3,-37.88 -331.2,-95.92 577.52,-333.75 1091.67,-724.16 1699.23,-999.36 328.21,-148.67 -592.55,1152 -933.81,1763.29 -72.44,-102.64 8.75,-268.63 -92.67,-309.86 -98.96,-40.23 -293.52,150.24 -413.61,275.34l0 139.9 243.95 243.95 264.1 0 0 442.7 -442.71 0 0 -292.2 -221.68 -221.68 -93.91 0 -146.15 146.15 0 1.63 -86.81 0 -623.22 623.22 0 86.81 -85.26 0 -521.24 489.3c-53.27,50.01 -204.57,-101.3 -155.03,-155.03l484.54 -525.6 0 -85.67 86.81 0 623.22 -623.22 0 -86.81 1.64 0 146.15 -146.15 0 -93.89 -254.33 -254.34 -286.38 0.01 0 -442.71 442.7 0 0 269.92 270.78 270.79z"/>
  <polygon class="fil2 str0" points="2028.26,195.55 2451.98,619.28 2039.21,1032.05 1615.49,608.32 "/>
  <polygon class="fil2 str0" points="3476.48,1643.78 3900.21,2067.51 3487.44,2480.28 3063.71,2056.55 "/>
  <polygon class="fil2 str0" points="2056.54,3063.71 2480.27,3487.44 2067.5,3900.21 1643.78,3476.48 "/>
  <polygon class="fil2 str0" points="608.32,1615.49 1032.05,2039.22 619.28,2451.98 195.55,2028.26 "/>
 </g>
</svg>
