<svg xmlns="http://www.w3.org/2000/svg" xmlns:xlink="http://www.w3.org/1999/xlink" width="291.382" height="290.256" version="1.1" viewBox="0 0 1511.49 1505.66" xml:space="preserve" style="shape-rendering:geometricPrecision;text-rendering:geometricPrecision;image-rendering:optimizeQuality;fill-rule:evenodd;clip-rule:evenodd"><defs><style type="text/css">.fil0{fill:url(#id0)}</style><radialGradient id="id0" cx="755.75" cy="752.83" r="755.75" fx="755.75" fy="752.83" gradientTransform="matrix(1.36642 -0.0308685 0.0307621 1.36108 -300 -249)" gradientUnits="userSpaceOnUse"><stop offset="0" style="stop-opacity:1;stop-color:#ebf4f2"/><stop offset=".561" style="stop-opacity:1;stop-color:#ebf4f2"/><stop offset="1" style="stop-opacity:1;stop-color:#1b1e24"/></radialGradient></defs><g id="Layer_x0020_1"><metadata id="CorelCorpID_0Corel-Layer"/><path d="M772.93 425.96l1.33 -174.63c-66.52,17.76 -27.74,12.9 -72.56,44.72 -40.37,28.66 -37.09,19.32 -78.23,39.06 -26.97,-50.96 -26.87,-70.27 -31.78,-135.83 -7.35,-97.92 13.25,-102.95 15.02,-182.52 -230.38,0 -379.39,89.37 -490.15,213.58 -194.17,217.79 -94.27,405.22 -62.77,540.42l184.3 0c46.89,-201.27 17.67,-72.12 -16.75,-201.06l-50.27 0c0,96.92 22.39,109.84 -67.02,117.29 -28.76,-123.47 10.85,-296.04 123.76,-328.65 49.21,-14.21 184.46,-20.28 213.19,8.45 34.97,34.98 14.91,175.11 14.91,236.43l4.5 0 -69.95 69.95 -35.09 -2.93c0,14.07 -0.19,26.8 -0.52,38.53l-102.2 102.2 85.22 85.22c-8.28,76.69 -17.86,106.08 -28.98,169.93 -63.21,24.91 -129.05,64.22 -164.52,99.7l0 142.94 -19.23 0 0 77.59 77.59 0 0 -19.23 142.93 0c39.99,-39.99 87.76,-123 111.53,-194.89 -0.92,10.2 -1.39,21.52 -1.39,34.18 43.43,-19.32 95.99,-31.38 153.45,-38.83l96.02 96.02 107.36 -107.36c9.54,-0.07 19.08,-0.1 28.62,-0.1 0,-9.24 -0.29,-18.48 -0.8,-27.72l78.73 -78.73c64.07,-1.17 196.41,-18.87 230.27,14.97 28.72,28.72 22.66,163.98 8.45,213.19 -32.61,112.91 -205.18,152.52 -328.64,123.76 7.44,-89.42 20.36,-67.02 117.28,-67.02l0 -50.27c-128.95,-34.43 0.2,-63.64 -201.06,-16.75l0 184.3c135.19,31.5 322.63,131.4 540.42,-62.77 124.21,-110.76 213.58,-259.77 213.58,-490.15 -79.58,1.77 -84.61,22.37 -182.52,15.02 -65.56,-4.92 -84.86,-4.82 -135.83,-31.78 19.74,-41.14 10.4,-37.87 39.06,-78.23 31.82,-44.82 26.96,-6.05 44.72,-72.56l-185.15 1.41 -54.11 -54.11 71.74 0 0 -200.88 128.12 -128.12 2.51 2.51 0.01 -0c61.08,14.44 74.4,31.51 149.41,33.19 9.73,-116.97 124.31,-268.41 134.04,-385.38 -116.97,9.73 -268.41,124.31 -385.37,134.04 1.66,75 18.74,88.33 33.18,149.41l2.51 2.51 -128.14 128.14 -200.87 0 0 71.74 -59.88 -59.88zm-261.2 644.05c-17.43,13.26 -31.38,26.17 -40.99,46.29 0.59,-4.5 1.01,-8.87 1.24,-13.07l36.48 -36.48 3.26 3.26z" class="fil0"/></g></svg>