<?xml version="1.0" encoding="UTF-8"?>
<!DOCTYPE svg PUBLIC "-//W3C//DTD SVG 1.1//EN" "http://www.w3.org/Graphics/SVG/1.1/DTD/svg11.dtd">
<!-- Creator: CorelDRAW 2018 (64-Bit) -->
<svg xmlns="http://www.w3.org/2000/svg" xml:space="preserve" width="74.1528mm" height="82.5794mm" version="1.1" style="shape-rendering:geometricPrecision; text-rendering:geometricPrecision; image-rendering:optimizeQuality; fill-rule:evenodd; clip-rule:evenodd"
viewBox="0 0 7392.33 8232.38"
 xmlns:xlink="http://www.w3.org/1999/xlink">
 <defs>
  <style type="text/css">
   <![CDATA[
    .fil0 {fill:url(#id0)}
   ]]>
  </style>
  <radialGradient id="id0" gradientUnits="userSpaceOnUse" gradientTransform="matrix(1.27258 -0.0106056 0.0543961 1.18755 -1290 -652)" cx="3991.86" cy="3704.57" r="4116.19" fx="3991.86" fy="3704.57">
   <stop offset="0" style="stop-opacity:1; stop-color:#EBF4F2"/>
   <stop offset="0.568627" style="stop-opacity:1; stop-color:#EBF4F2"/>
   <stop offset="1" style="stop-opacity:1; stop-color:#1B1E24"/>
  </radialGradient>
 </defs>
 <g id="Layer_x0020_1">
  <metadata id="CorelCorpID_0Corel-Layer"/>
  <path class="fil0" d="M6518.42 2172.12c256.39,432.81 400.07,913.87 430.97,1400.78l-854.64 45.54c5.08,62.25 7.81,125.16 7.81,188.71 0,84.66 -4.75,168.2 -13.71,250.47l858.02 -45.72 -0.05 0c-30.14,398.75 -136,792.88 -317.57,1158.98 97.37,507.23 332.48,679.78 694.59,1156.92 359.61,473.81 -771.09,-49.4 -1666.72,-7.84 -123.74,89.92 -252.56,169.68 -385.29,239.32l-343.67 -753.87c-126.92,70.8 -261.25,129.86 -401.57,175.7l343.74 754c-52.38,18.68 -105.11,35.95 -158.24,51.76 -383.47,390.64 -561.93,681.61 -769.38,1283.92 -197.99,574.77 -266.54,-517.17 -801.92,-1191.53l-7.61 7.61 -257.71 0c0,-39.58 -0.74,-76.63 -2.2,-111.45 -401.8,-125.13 -783.47,-332.63 -1118.43,-622.69l-119.55 119.55 0 221.51 -221.51 0 -336.64 336.64 0 341.48 -236.67 0 0 94.31 -154 0 0 98.88 -227.51 0 0 50.71 -249.77 0 0 -249.79 57.59 0 0 -220.65 79.04 0 0 -173.83 94.31 0 0 -236.69 341.48 0 336.64 -336.64 0 -221.51 221.51 0 117.73 -117.73c-265.69,-299.34 -464.38,-637.23 -596.12,-994.24 -176.28,-0.15 -328.2,5.53 -551,11.22 -232.11,5.91 175.44,-253.94 403.39,-559.45 -116.29,-666.99 -16.58,-1364.26 299.25,-1979.29 -311.74,-425.95 -553.26,-719.78 -937.66,-1202.95 -382.21,-480.43 771.26,141.85 1622.7,310.43 501.88,-456.14 1115.61,-721.05 1747.34,-794.6 135.93,-153.57 171.84,-312.53 287.75,-571.52 112.56,-251.39 175.33,144.4 407.12,567.63 429.43,44.9 851.36,177.95 1236.47,399.17l286.07 -261.68c213.68,-139.21 1417.72,-590.08 1596.74,-415.86 194.31,189.07 -307.85,1336.54 -476.6,1505.72l-264.52 298.57z"/>
 </g>
</svg>
