<?xml version="1.0" encoding="UTF-8"?>
<!DOCTYPE svg PUBLIC "-//W3C//DTD SVG 1.1//EN" "http://www.w3.org/Graphics/SVG/1.1/DTD/svg11.dtd">
<!-- Creator: CorelDRAW 2018 (64-Bit) -->
<svg xmlns="http://www.w3.org/2000/svg" xml:space="preserve" width="82.4898mm" height="82.4898mm" version="1.1" style="shape-rendering:geometricPrecision; text-rendering:geometricPrecision; image-rendering:optimizeQuality; fill-rule:evenodd; clip-rule:evenodd"
viewBox="0 0 9647.24 9647.24"
 xmlns:xlink="http://www.w3.org/1999/xlink">
 <defs>
  <style type="text/css">
   <![CDATA[
    .fil0 {fill:url(#id0)}
   ]]>
  </style>
  <radialGradient id="id0" gradientUnits="userSpaceOnUse" gradientTransform="matrix(1.18797 0.00814889 -0.00814889 1.18797 -867 -946)" cx="4823.62" cy="4823.62" r="4823.62" fx="4823.62" fy="4823.62">
   <stop offset="0" style="stop-opacity:1; stop-color:#EBF4F2"/>
   <stop offset="0.658824" style="stop-opacity:1; stop-color:#EBF4F2"/>
   <stop offset="1" style="stop-opacity:1; stop-color:#1B1E24"/>
  </radialGradient>
 </defs>
 <g id="Layer_x0020_1">
  <metadata id="CorelCorpID_0Corel-Layer"/>
  <path class="fil0" d="M2294.69 1412.81l1116.13 -0.01 1412.81 -1412.8 1412.79 1412.8 1127.56 0.01c955.23,-624.61 1475.12,-788.15 1595.51,-668.26 125.65,125.15 -48.77,706.34 -725.04,1756.23l0 910.05 1412.79 1412.79 -1412.81 1412.79 0 1636.97 121.66 121.66 468.98 0.01 0 386.23 154.08 0 0 652.59 -652.6 0.01 0 -154.07 -386.23 0 0 -468.98 -176.4 -176.4 -1527.52 -0.01 -1412.79 1412.82 -1412.81 -1412.8 -1486.13 0 -176.35 176.35 -0.01 468.98 -386.23 0 0 154.08 -652.59 0 -0.01 -652.6 154.07 0 0 -386.23 468.98 0 80.25 -80.25 0 -1678.35 -1412.81 -1412.81 1412.81 -1412.81 0 -948.37c-669.8,-1008.27 -846.29,-1554.71 -722.95,-1678.55 119,-119.49 650.27,32.29 1604.83,628.91z"/>
 </g>
</svg>
