<svg xmlns="http://www.w3.org/2000/svg" xmlns:xlink="http://www.w3.org/1999/xlink" width="291.384" height="290.256" version="1.1" viewBox="0 0 3619.99 3605.98" xml:space="preserve" style="shape-rendering:geometricPrecision;text-rendering:geometricPrecision;image-rendering:optimizeQuality;fill-rule:evenodd;clip-rule:evenodd"><defs><style type="text/css">.fil0,.fil1{fill:#fff}.fil0{fill-opacity:.501961}</style></defs><g id="Layer_x0020_1"><metadata id="CorelCorpID_0Corel-Layer"/><path d="M1847.34 1710.59c112.79,-43.62 52.74,56.31 87.06,-145.59 -110.29,-87.12 -58.95,115.95 -85.87,-197.72l5.81 -765.36c-159.31,42.53 -66.44,30.9 -173.78,107.11 -96.68,68.63 -88.84,46.26 -187.36,93.54 -64.59,-122.06 -64.35,-168.3 -76.12,-325.31 -17.6,-234.51 31.74,-246.56 35.98,-437.14 -551.76,0 -908.62,214.04 -1173.88,511.51 -465.04,521.59 -225.78,970.48 -150.34,1294.28l441.4 0c112.29,-482.03 42.33,-172.73 -40.12,-481.54l-120.39 -0c0,232.13 53.63,263.07 -160.51,280.9 -68.88,-295.7 25.98,-709.01 296.41,-787.1 117.85,-34.03 441.78,-48.56 510.58,20.23 83.76,83.78 35.72,419.39 35.72,566.24l481.54 0c73.76,159.49 -108.33,50.4 123.37,196.93 8.91,5.64 19.89,10.77 28.96,16.71 9.69,6.32 20.54,13.83 29.54,20 1.15,0.79 2.33,1.63 3.55,2.53l-907.74 -75.66c0,227.02 -20.02,309.96 -36.31,485.34 -23.22,250.08 -50.94,307.63 -84.08,517.67 159.46,0 194.29,21.49 307.95,-45.07 95.49,-55.94 110.28,-114.34 133.25,-235.63 -63.14,-163.52 -17.65,-240.31 40.33,-361.17l820.22 35.53 0.01 0.01c23.93,9.54 68.79,-8.81 154.22,30.7l-0.01 481.54c146.85,-0 482.46,-48.04 566.23,35.72 68.79,68.79 54.28,392.73 20.24,510.58 -78.09,270.42 -491.4,365.29 -787.09,296.41 17.82,-214.15 48.77,-160.51 280.89,-160.51l0 -120.39c-308.82,-82.46 0.48,-152.42 -481.54,-40.12l0 441.4c323.79,75.44 772.69,314.71 1294.28,-150.34 297.47,-265.26 511.52,-622.13 511.52,-1173.88 -190.58,4.25 -202.64,53.58 -437.14,35.98 -157.01,-11.77 -203.24,-11.53 -325.3,-76.11 47.27,-98.52 24.9,-90.69 93.54,-187.36 76.2,-107.35 64.57,-14.48 107.1,-173.79l-765.36 5.81c-313.67,-26.92 -110.6,24.42 -197.73,-85.87 -206.75,35.13 -97.02,-28.64 -149,95.5 -21.13,-17.93 -44.41,-36.77 -70.02,-56.5zm-193.85 416.21c0.96,297.79 26.03,321.8 -280.7,320.83 -168.67,153.88 -281.1,138.3 -281.1,441.62 235.02,-104.54 581.47,-120.39 923.16,-120.39 0,-240.34 -80.26,-481.99 -80.26,-722.31l-200.64 -0.19c-29.67,55.92 -24.53,50.8 -80.47,80.45zm341.07 -1135.05l633.69 0 0 633.69 -633.69 0 0 -633.69z" class="fil0"/><path d="M2941.13 843.48c146.28,34.58 178.18,75.47 357.83,79.48 23.31,-280.14 297.71,-642.83 321.02,-922.96 -280.14,23.31 -642.82,297.72 -922.95,321.03 3.98,179.63 44.89,211.55 79.47,357.83l6.01 6.01 -1808.32 1808.32c-186.51,11.5 -495.85,166.36 -628.36,298.86l0 342.33 -46.06 -0 0 185.83 185.83 0 -0 -46.06 342.32 -0c129.24,-129.24 292.45,-446.11 302.48,-631.96l1804.71 -1804.71 6.01 6.01z" class="fil1"/></g></svg>