<svg xmlns="http://www.w3.org/2000/svg" xmlns:xlink="http://www.w3.org/1999/xlink" width="247.367" height="266.701" version="1.1" viewBox="0 0 1015.22 1094.57" xml:space="preserve" style="shape-rendering:geometricPrecision;text-rendering:geometricPrecision;image-rendering:optimizeQuality;fill-rule:evenodd;clip-rule:evenodd"><defs><style type="text/css">.str0{stroke:#a5a28f;stroke-width:23.27;stroke-miterlimit:22.9256}.fil0{fill:#a5a28f}.fil1{fill:#cfba8f}</style></defs><g id="Layer_x0020_1"><metadata id="CorelCorpID_0Corel-Layer"/><g id="_2085270839792"><path d="M-0 190.41c8.26,15.59 53.76,34.89 70.99,44.48 15.18,8.83 33.26,13.96 38.89,23.92l13.75 28.81c2.28,5.05 4.58,9.36 7.37,14.91 6.29,12.56 35.09,80.36 47.26,80.36 10.71,0 33.37,-54.15 37.17,-62.11 10.44,-21.52 20.8,-61.93 40.74,-70.62l91.96 -49.98c8.22,-5.89 6.43,-5.52 6.43,-15.84 -9.41,-6.31 -18.88,-9.75 -28.76,-15.81l-43.33 -23.53c-5.72,-3.44 -8.07,-4.84 -14.34,-7.95 -26.68,-13.21 -14.33,-6.54 -24.99,-19.8 -1.3,2.01 -16.94,-34.59 -20.28,-41.43 -0,0 -16.51,-33.87 -18.24,-37.33 -6.45,-12.88 -12.46,-26.84 -20.26,-38.5l-12.16 0c-10.17,15.18 -47.57,99.93 -60.78,121.57 -4.74,7.78 -33.28,24.83 -42.04,29.13 -14.57,7.12 -61.78,25.37 -69.38,39.72zm348.02 2.73c-0.27,0.75 -0.49,1.33 0,0z" class="fil0"/><path d="M660.51 902.1c8.26,15.6 53.76,34.89 70.99,44.48 15.18,8.83 33.26,13.96 38.89,23.92l13.75 28.8c2.28,5.05 4.58,9.36 7.37,14.91 6.29,12.56 35.09,80.36 47.26,80.36 10.71,0 33.37,-54.15 37.17,-62.11 10.44,-21.52 20.8,-61.92 40.74,-70.62l91.96 -49.98c8.22,-5.89 6.43,-5.52 6.43,-15.84 -9.41,-6.31 -18.88,-9.75 -28.76,-15.81l-43.33 -23.53c-5.73,-3.44 -8.07,-4.84 -14.34,-7.95 -26.68,-13.21 -14.33,-6.54 -25,-19.8 -1.3,2.01 -16.93,-34.59 -20.28,-41.43 -0,0 -16.51,-33.87 -18.24,-37.33 -6.45,-12.88 -12.46,-26.84 -20.26,-38.5l-12.16 0c-10.17,15.18 -47.57,99.93 -60.78,121.57 -4.74,7.78 -33.28,24.83 -42.04,29.13 -14.57,7.13 -61.78,25.37 -69.38,39.72zm348.02 2.73c-0.27,0.75 -0.49,1.33 0,0z" class="fil0"/><path d="M127.16 565.55c20.15,38.07 131.25,85.19 173.31,108.6 37.06,21.55 81.19,34.08 94.93,58.39l33.58 70.32c5.57,12.33 11.19,22.85 17.98,36.39 15.35,30.67 85.67,196.2 115.39,196.2 26.16,0 81.47,-132.19 90.74,-151.63 25.48,-52.54 50.79,-151.18 99.45,-172.41l224.5 -122.02c20.07,-14.37 15.7,-13.47 15.7,-38.67 -22.97,-15.4 -46.09,-23.8 -70.2,-38.6l-105.78 -57.44c-13.98,-8.4 -19.71,-11.82 -35.02,-19.4 -65.13,-32.24 -34.99,-15.98 -61.02,-48.34 -3.17,4.91 -41.34,-84.46 -49.51,-101.14 -0.01,0.01 -40.3,-82.69 -44.52,-91.13 -15.74,-31.45 -30.43,-65.53 -49.47,-93.99l-29.68 0c-24.82,37.06 -116.14,243.97 -148.38,296.79 -11.58,19 -81.25,60.63 -102.65,71.11 -35.56,17.4 -150.82,61.93 -169.37,96.97zm849.64 6.65c-0.65,1.82 -1.19,3.24 0,0z" class="fil1 str0"/></g></g></svg>