<svg xmlns="http://www.w3.org/2000/svg" xmlns:xlink="http://www.w3.org/1999/xlink" width="190.867" height="42.418" version="1.1" viewBox="0 0 526.63 117.04" xml:space="preserve" style="shape-rendering:geometricPrecision;text-rendering:geometricPrecision;image-rendering:optimizeQuality;fill-rule:evenodd;clip-rule:evenodd"><defs><style type="text/css">.str0,.str1{stroke:#dad4b4;stroke-width:5.21;stroke-miterlimit:22.9256}.str1{stroke-width:2.09}.fil1{fill:#dad4b4}.fil0{fill:#fff}</style></defs><g id="Layer_x0020_1"><metadata id="CorelCorpID_0Corel-Layer"/><path d="M41.68 2.61l443.27 0 0 7.25c22.29,4.96 39.07,24.94 39.07,48.66l0 0c0,23.72 -16.79,43.7 -39.07,48.66l0 7.25 -443.27 0 0 -7.25c-22.29,-4.96 -39.07,-24.94 -39.07,-48.66l0 0c0,-23.72 16.79,-43.7 39.07,-48.66l0 -7.25z" class="fil0 str0"/><path d="M47.71 12.02l432.25 0 0 6.03c18.53,4.13 32.5,20.74 32.5,40.47l0 0c0,19.73 -13.96,36.34 -32.5,40.47l0 6.03 -432.25 0 0 -6.03c-18.53,-4.13 -32.5,-20.74 -32.5,-40.47l0 0c0,-19.73 13.96,-36.34 32.5,-40.47l0 -6.03z" class="fil0 str1"/><path d="M456.58 44.57l32.6 13.94 -32.6 13.94 -0.06 -0.03 0 -6.97 0.06 0.03 16.3 -6.97 -16.3 -6.97 -0.06 0.02 0 -6.97 0.06 -0.03zm-385.49 0l-32.6 13.94 32.6 13.94 0.06 -0.03 0 -6.97 -0.06 0.02 -16.3 -6.97 16.3 -6.97 0.06 0.02 0 -6.97 -0.06 -0.03zm385.49 8.94l11.69 5 -11.69 5 -11.69 -5 11.69 -5zm-385.49 0l-11.69 5 11.69 5 11.69 -5 -11.69 -5zm0 3.4l-3.76 1.61 3.76 1.61 3.75 -1.61 -3.75 -1.61zm385.49 -0l3.75 1.61 -3.75 1.61 -3.76 -1.61 3.76 -1.61z" class="fil1"/></g></svg>