<?xml version="1.0" encoding="UTF-8"?>
<!DOCTYPE svg PUBLIC "-//W3C//DTD SVG 1.1//EN" "http://www.w3.org/Graphics/SVG/1.1/DTD/svg11.dtd">
<!-- Creator: CorelDRAW 2018 (64-Bit) -->
<svg xmlns="http://www.w3.org/2000/svg" xml:space="preserve" width="50.5002mm" height="11.223mm" version="1.1" style="shape-rendering:geometricPrecision; text-rendering:geometricPrecision; image-rendering:optimizeQuality; fill-rule:evenodd; clip-rule:evenodd"
viewBox="0 0 526.63 117.04"
 xmlns:xlink="http://www.w3.org/1999/xlink">
 <defs>
  <style type="text/css">
   <![CDATA[
    .str0 {stroke:#DAD4B4;stroke-width:5.21;stroke-miterlimit:22.9256}
    .str1 {stroke:#DAD4B4;stroke-width:2.09;stroke-miterlimit:22.9256}
    .fil1 {fill:#DAD4B4}
    .fil0 {fill:white}
   ]]>
  </style>
 </defs>
 <g id="Layer_x0020_1">
  <metadata id="CorelCorpID_0Corel-Layer"/>
  <path class="fil0 str0" d="M41.68 2.61l443.27 0 0 7.25c22.29,4.96 39.07,24.94 39.07,48.66l0 0c0,23.72 -16.79,43.7 -39.07,48.66l0 7.25 -443.27 0 0 -7.25c-22.29,-4.96 -39.07,-24.94 -39.07,-48.66l0 0c0,-23.72 16.79,-43.7 39.07,-48.66l0 -7.25z"/>
  <path class="fil0 str1" d="M47.71 12.02l432.25 0 0 6.03c18.53,4.13 32.5,20.74 32.5,40.47l0 0c0,19.73 -13.96,36.34 -32.5,40.47l0 6.03 -432.25 0 0 -6.03c-18.53,-4.13 -32.5,-20.74 -32.5,-40.47l0 0c0,-19.73 13.96,-36.34 32.5,-40.47l0 -6.03z"/>
  <path class="fil1" d="M456.58 44.57l32.6 13.94 -32.6 13.94 -0.06 -0.03 0 -6.97 0.06 0.03 16.3 -6.97 -16.3 -6.97 -0.06 0.02 0 -6.97 0.06 -0.03zm-385.49 0l-32.6 13.94 32.6 13.94 0.06 -0.03 0 -6.97 -0.06 0.02 -16.3 -6.97 16.3 -6.97 0.06 0.02 0 -6.97 -0.06 -0.03zm385.49 8.94l11.69 5 -11.69 5 -11.69 -5 11.69 -5zm-385.49 0l-11.69 5 11.69 5 11.69 -5 -11.69 -5zm0 3.4l-3.76 1.61 3.76 1.61 3.75 -1.61 -3.75 -1.61zm385.49 -0l3.75 1.61 -3.75 1.61 -3.76 -1.61 3.76 -1.61z"/>
 </g>
</svg>
