<svg xmlns="http://www.w3.org/2000/svg" xmlns:xlink="http://www.w3.org/1999/xlink" width="349.106" height="100mm" version="1.1" viewBox="0 0 162059.64 175450.56" xml:space="preserve" style="shape-rendering:geometricPrecision;text-rendering:geometricPrecision;image-rendering:optimizeQuality;fill-rule:evenodd;clip-rule:evenodd"><defs><style type="text/css">.fil0{fill-opacity:.501961}.fil0,.fil1{fill:#fff}</style></defs><g id="Layer_x0020_1"><metadata id="CorelCorpID_0Corel-Layer"/><g id="_2406989807680"><path d="M80125.81 3404.97c773.21,13400.91 2931.6,25180.31 6562.55,35464.17 21142.32,3916.58 37341.84,21912.72 38506.66,43898.96 10870.39,5057.54 45662.76,9288.18 34783.77,11340.42 -15524.57,2928.45 -29676.41,8056.34 -41697.93,15921.96 -4695.76,7628.59 -11499.03,13820.06 -19598.53,17765.07 -3277.42,4116.77 -6219.55,8629.71 -8788.32,13567.59 -5319.31,10224.38 -11857.47,41273.87 -13627.95,32565.03 -3797.8,-18679.52 -6687.47,-32979.97 -12642.97,-43629.64 -10819.33,-3461.81 -19940.48,-10717.75 -25800.88,-20201.9 -2870.72,-939.36 -5998.13,-1761.35 -9415.55,-2470.17 -7980.02,-1655.38 -36763.21,-210.72 -26044.93,-4470.48 9208.7,-3659.72 18993.75,-9596.27 28441.59,-17455.4 -1.23,-131.06 -5.09,-261.95 -5.09,-393.54 0,-6798.36 1438.17,-13260.2 4024.13,-19100.25 -3400.93,-4240.99 -6891.52,-8416.89 -9959.28,-12900.53 -3251.98,-4753.31 9153.26,-2011.37 18715.49,-305.46 6309.38,-6725.55 14563.8,-11604.65 23867.59,-13734.8 5819.34,-14161.14 11836.07,-50479.06 12679.64,-35861.04zm20156.99 59859.34c2231.91,2684.39 4655.58,5198.42 7271.9,7549.46 -2024.87,-2873 -4480.13,-5420.54 -7271.9,-7549.46zm-22774.71 11450.78c8360.75,0 15138.75,6778.01 15138.75,15138.75 0,8360.75 -6778.01,15138.75 -15138.75,15138.75 -8360.75,0 -15138.75,-6778.01 -15138.75,-15138.75 0,-8360.75 6778.01,-15138.75 15138.75,-15138.75zm-740.93 -13904.63c15835.47,0 28672.83,12837.37 28672.83,28672.83 0,15835.64 -12837.37,28673.01 -28672.83,28673.01 -15835.64,0 -28673.01,-12837.37 -28673.01,-28673.01 0,-15835.47 12837.37,-28672.83 28673.01,-28672.83z" class="fil0"/><g><path d="M80861.48 34960.28c2749.84,-1809.95 11018.29,9419.06 26766.39,8921.84 16369.89,-516.88 30061.35,-13217.39 27908.57,-6632.03 -3705.16,11333.58 -16775.35,24659.58 141.06,50065.34 4499.25,6757.13 -23310.71,-7170.66 -33459.3,-293.18 -15730.55,10660.73 -38235.41,27900.85 -66754.02,50052.53 -2803.52,2177.52 -4918.93,4891.04 -8273.37,6502.37 -4118.35,1977.85 2352.44,-6051.64 4718.92,-9172.56 16821.85,-22183.44 43961.77,-53026.95 52414.98,-68202.19 6108.14,-10965.13 -4560.49,-30519.98 -3463.22,-31242.13z" class="fil1"/><path d="M46900.92 64970.92l-15938.28 0c1154.11,13390.91 -10918.29,23454.05 -10918.29,28766.87 5312.82,0 13428.28,-14383.44 26856.57,-12828.42l0 -15938.45z" class="fil1"/><path d="M104336.94 122842.76l-15938.45 0c1154.11,13390.74 -10918.11,23454.05 -10918.11,28766.7 5312.64,0 13428.28,-14383.26 26856.57,-12828.42l0 -15938.28z" class="fil1"/></g></g></g></svg>