<svg xmlns="http://www.w3.org/2000/svg" xmlns:xlink="http://www.w3.org/1999/xlink" width="280.264" height="312.111" version="1.1" viewBox="0 0 3473.45 3868.14" xml:space="preserve" style="shape-rendering:geometricPrecision;text-rendering:geometricPrecision;image-rendering:optimizeQuality;fill-rule:evenodd;clip-rule:evenodd"><defs><style type="text/css">.fil0,.fil1{fill:#fff}.fil0{fill-opacity:.501961}</style></defs><g id="Layer_x0020_1"><metadata id="CorelCorpID_0Corel-Layer"/><path d="M2835.6 728.21c264.54,264.54 407.76,604.42 429.73,950.57l-530.19 28.25c-15.26,-219.82 -106.91,-435.34 -274.96,-603.39 -369.69,-369.69 -969.08,-369.69 -1338.77,0 -369.69,369.69 -369.69,969.08 0,1338.77 255.9,255.9 621.84,334.61 945.49,236.25l221.54 485.96c-24.61,8.78 -49.39,16.89 -74.35,24.32 -180.18,183.55 -264.03,320.27 -361.51,603.28 -94.92,275.56 -126.49,-264.24 -392.4,-578.98 -261.73,-59.82 -510.34,-191.56 -714.2,-395.41 -155.89,-155.89 -269.61,-337.96 -341.23,-532.05 -82.83,-0.07 -154.21,2.6 -258.9,5.27 -109.06,2.78 82.43,-119.32 189.54,-262.87 -54.64,-313.4 -7.79,-641.03 140.61,-930.01 -146.48,-200.14 -259.96,-338.2 -440.58,-565.23 -179.59,-225.74 362.39,66.65 762.46,145.86 235.82,-214.33 524.19,-338.8 821.02,-373.36 63.87,-72.16 80.74,-146.85 135.21,-268.54 52.89,-118.12 82.38,67.85 191.29,266.71 325.09,33.99 641.07,175.45 890.21,424.59zm428.52 1156.85c-14.16,187.36 -63.9,372.55 -149.22,544.57 45.75,238.33 156.22,319.41 326.37,543.6 168.97,222.63 -362.31,-23.21 -783.14,-3.68 -58.14,42.25 -118.67,79.73 -181.04,112.45l-220.84 -484.42c73.02,-41.26 141.74,-92.96 203.94,-155.16 148.97,-148.97 237.87,-335.24 266.78,-528.74l537.17 -28.62z" class="fil0"/><path d="M825.82 2046.73l258.3 258.3 -115.44 0c-212.01,-212.01 -264.93,-177.06 -264.93,-468.21l-121.09 0 -254.78 254.77 0 121.1c304.84,0 303.99,100.69 526.54,323.24l0 47.44 -224.89 224.89 -104.08 0 0 104.08 -158.18 158.18 -160.45 0 0 111.21 -44.31 -0 0 81.68 -37.14 0 0 103.68 -27.06 -0 0 117.37 117.36 0 0 -23.83 106.9 0 0 -46.46 72.36 0 0 -44.31 111.2 -0 0 -160.45 158.18 -158.18 104.08 0 0 -104.08 224.9 -224.89 47.44 0c220.53,220.53 310.38,211.47 310.38,513.67l121.09 0 254.78 -254.77 0 -121.09c-287.39,0 -246.27,-42.99 -455.35,-252.06l0 -115.44 258.3 258.3 1657.19 -1870.56c79.29,-79.49 315.24,-618.65 223.94,-707.49 -84.12,-81.86 -649.86,129.99 -750.26,195.4l-1834.99 1678.52z" class="fil1"/></g></svg>