<svg xmlns="http://www.w3.org/2000/svg" xmlns:xlink="http://www.w3.org/1999/xlink" width="100%" height="100%" version="1.1" viewBox="0 0 1363208 1360957" xml:space="preserve" style="shape-rendering:geometricPrecision;text-rendering:geometricPrecision;image-rendering:optimizeQuality;fill-rule:evenodd;clip-rule:evenodd"><defs><style type="text/css">.fil1{fill:url(#id0)}.fil2{fill:url(#id1)}.fil0{fill:url(#id2)}</style><linearGradient id="id0" x1="64444" x2="1215474" y1="721619" y2="721615" gradientUnits="userSpaceOnUse"><stop offset="0" style="stop-opacity:1;stop-color:#ca82fc"/><stop offset=".329" style="stop-opacity:1;stop-color:#d296fd"/><stop offset=".478" style="stop-opacity:1;stop-color:#deb5fe"/><stop offset=".62" style="stop-opacity:1;stop-color:#d399fd"/><stop offset="1" style="stop-opacity:1;stop-color:#ca82fc"/></linearGradient><linearGradient id="id1" x1="64444" x2="1215474" y1="721618" y2="721614" gradientUnits="userSpaceOnUse" xlink:href="#id0"/><linearGradient id="id2" x1="64443" x2="1215474" y1="721619" y2="721615" gradientUnits="userSpaceOnUse" xlink:href="#id0"/></defs><g id="Layer_x0020_1"><metadata id="CorelCorpID_0Corel-Layer"/><g id="_1369329273680"><path d="M1249931 1039087c-27076,7238 -442617,305912 -597444,-45205 -56189,-127424 16982,-254500 106169,-298135 137846,-67444 268598,28347 194692,182529 157293,-36683 244447,-194750 247736,-346660 1471,-67901 -23835,-107108 -25300,-172883 119990,80431 121684,172650 173007,210291 0,-232658 -220102,-424031 -403300,-511679 -113828,-54460 -203454,-34195 -251652,-57345 23377,64650 105661,24988 256083,201352 77250,90573 97152,236598 21491,348646 -61248,90701 -220071,138552 -323941,53070 -39626,-32609 -77814,-81136 -71411,-142141 7709,-73458 49615,-102195 130136,-102195l0 -24739c-45736,-12225 -220138,-160480 -445002,-130 -37019,26398 -76046,63231 -111088,86721 8153,-98062 73488,-188394 111218,-259773 -107363,28697 -213019,247712 -239992,353530 -36059,141458 -30075,335328 46422,471114 14193,25192 8726,15257 20566,28892 0,-171280 -672,-266275 66656,-378599 52758,-88016 153383,-160066 311969,-124119 267034,60529 161137,489628 -39519,373920l-54880 -56753c-2043,91809 -20534,188493 83134,300254 48673,52472 116853,87874 183299,113399l53958 20209c2613,1066 6326,2720 8659,3705 2312,977 6652,3045 8510,3853 1852,804 5831,2239 8453,3904 -44636,10409 -73478,23674 -128216,32465 -49627,7967 -104283,4644 -156008,4644 30551,26582 57168,28473 108150,40182 40294,9255 81805,9513 139084,9545 257699,148 530631,-180405 568365,-321869l-4 0z" class="fil0"/><polygon points="1249931 1039087 1262289 1039087 1251990 1024655" class="fil1"/><polygon points="1348791 569024 1348791 581394 1363208 571085" class="fil2"/></g></g></svg>