<svg xmlns="http://www.w3.org/2000/svg" xmlns:xlink="http://www.w3.org/1999/xlink" width="100%" height="100%" version="1.1" viewBox="0 0 1173974 1360725" xml:space="preserve" style="shape-rendering:geometricPrecision;text-rendering:geometricPrecision;image-rendering:optimizeQuality;fill-rule:evenodd;clip-rule:evenodd"><defs><style type="text/css">.fil0{fill:url(#id0)}.fil2{fill:url(#id1)}.fil1{fill:url(#id2)}</style><linearGradient id="id0" x1="65339" x2="1114308" y1="646341" y2="646337" gradientUnits="userSpaceOnUse"><stop offset="0" style="stop-opacity:1;stop-color:#7cfeff"/><stop offset=".369" style="stop-opacity:1;stop-color:#8ffefe"/><stop offset=".502" style="stop-opacity:1;stop-color:#c6fffd"/><stop offset=".631" style="stop-opacity:1;stop-color:#9efefe"/><stop offset="1" style="stop-opacity:1;stop-color:#7cfeff"/></linearGradient><linearGradient id="id1" x1="65339" x2="1114307" y1="646342" y2="646338" gradientUnits="userSpaceOnUse" xlink:href="#id0"/><linearGradient id="id2" x1="65340" x2="1114308" y1="646342" y2="646338" gradientUnits="userSpaceOnUse" xlink:href="#id0"/></defs><g id="Layer_x0020_1"><metadata id="CorelCorpID_0Corel-Layer"/><g id="_1369324818656"><path d="M593162 915379c2062,92642 42949,119948 49434,197922 -59861,16001 -14286,21111 -74147,37111 -9938,-37269 157,-27157 -37070,-37111l61792 -197922 -9 0zm0 -123700c-4431,-23413 15561,-43986 7817,-7826 -182,836 348,51009 -7817,7826zm-24713 0c-4431,-23413 15562,-43986 7818,-7826 -182,836 348,51009 -7818,7826zm12357 -49484c-4431,-23413 15562,-43986 7818,-7826 -182,836 348,51009 -7818,7826zm74147 -12374l-27190 -22262c34585,6054 16257,-7065 27190,22262zm-135931 0c8009,-30229 -5483,-16721 24713,-24738l-24713 24738zm111218 -74222l0 0zm-86504 0l0 0zm111217 -24739c1524,1159 23189,23587 24713,24738l-49435 0 24713 -24738 9 0zm-74147 -24738l12357 0 -12357 0zm-61792 24738l24713 24738 -49435 0c315,-232 24258,-24324 24713,-24738l9 0zm173001 0c13135,-13152 46876,19637 13765,6427 -282,-116 -34461,14286 -13765,-6427zm-234793 0c13135,-13152 46876,19637 13765,6427 -282,-116 -34461,14286 -13765,-6427zm210079 -12373l-12357 12373 12357 -12373zm-148287 12373l-12357 -12373 12357 12373zm86504 -74222c0,6891 248,20191 -820,23910 -6442,22410 -3420,13226 -11536,25574 0,-6891 -248,-20190 820,-23909 6442,-22403 3420,-13226 11536,-25575zm-24712 49484c-12531,-16588 -12357,26014 -12357,-37110 11429,15123 8017,-13905 12357,37110zm222436 -49484l0 0zm-432517 0l0 0zm432517 0c29343,-43861 49327,-43555 111218,-136073 27099,13011 48615,21583 86505,24738 -13003,27123 -21566,48665 -24713,86588 -78911,0 -108353,19355 -173010,24738l0 9zm-432517 0c-64657,-5383 -94100,-24738 -173002,-24738 -3155,-37923 -11711,-59464 -24713,-86588 37890,-3155 59407,-11727 86505,-24738 61891,92518 81875,92203 111218,136073l-8 -9zm160646 -284510l51721 -59696 62304 56889 -64598 175992c-1118,-50280 -29923,-129480 -49435,-173184l8 -1zm-24714 346359c-51729,-13823 -72451,-55000 -102531,-95283l-82836 -127377 39182 -47572c-119037,-1905 -263507,8340 -360472,-14278l185367 321621c26693,-114679 123012,-40151 259507,-37111 -30237,45195 -33807,23620 -61792,61850 23720,35455 31372,44888 86505,49485 2493,-1648 6303,-8034 7388,-5077 977,2659 6137,-3280 7421,-3172 24498,1955 7768,-1292 22262,8257l12357 0 -12357 12373 -12357 12373 -12357 12373 -12357 12373c0,48839 3884,50197 12357,86588 46280,-10791 59042,-20498 86505,-49476 -3611,43439 -24043,95773 -41012,132130 -18403,39430 -48425,79938 -57850,115277 -21806,-10468 -39985,-14270 -61792,-24738l173010 321622c42436,-31124 61484,-104684 91672,-155643 27612,-46619 82944,-119790 93694,-165987 -21806,10468 -39985,14270 -61792,24738 -13251,-49683 -90199,-143162 -98862,-247399 27463,28979 40225,38685 86505,49476 8472,-36391 12357,-37757 12357,-86588l-12357 -12373 -12357 -12373 -12357 -12373 -12357 -12373 12357 0c2493,-1648 6303,-8034 7388,-5077 977,2659 6137,-3280 7421,-3172 24498,1955 7768,-1292 22262,8257 55133,-4588 62786,-14030 86505,-49485 -27976,-38230 -31554,-16655 -61792,-61850 44565,-994 114738,-17293 152289,-22302 113562,-15156 72302,24737 119583,59414 18469,-79365 158674,-260044 173010,-321621 -96974,22618 -241436,12373 -358369,12373l39182 47572 -39762 63175c-28208,49766 -92576,146656 -147709,161390 56839,-84972 33790,-14576 24713,-123698 -43605,23098 -55133,25732 -86505,61850 1292,-58081 29095,-121728 49021,-161225 58106,-115152 64964,-84691 111633,-73809l-135567 -235398c-18005,-31422 -22444,-54959 -37433,-86224l-185367 321622c47331,-11040 34594,-26817 69204,3975 26850,23902 90017,166824 91449,231058 -31364,-36126 -42901,-38751 -86505,-61850 -22171,95243 -18195,59564 24713,123698l-15 -16z" class="fil0"/><path d="M803242 804044c29873,6965 52392,16796 77561,21318 43074,7744 59075,7313 95441,15794 6857,29476 13028,62206 24713,86588 -59017,0 -51241,8406 -98862,12373 -13831,-51862 -71316,-94903 -98862,-136073l9 0zm-98862 -74223l-37070 0 0 12373 12357 12373 12357 12373 12357 12373c63738,42727 87814,96062 127716,156670 15645,23753 4050,9864 20572,28887 -20034,55398 2509,-6162 -19637,29823 -11818,19206 -10328,5383 -17442,32026 77577,0 98953,-15313 172985,-13201 66703,1905 102556,13201 185383,13201 -15106,-56616 -148024,-214288 -173010,-321622 -22146,25500 -21119,18610 -24713,61850 -44615,0 -104104,3338 -146930,-1358l-124942 -35745 17 -23z" class="fil1"/><path d="M271864 940117c-47621,-3967 -39845,-12373 -98862,-12373 11686,-24382 17856,-57112 24713,-86588l173002 -37111c-27546,41170 -85031,84211 -98862,136073l9 -1zm197723 -160811l12357 -12373 12357 -12373 12357 -12373 0 -12373 -37070 0 -115890 32432c-49609,7926 -104245,4671 -155974,4671 -3594,-43240 -2567,-36350 -24713,-61850 -22626,97205 -158856,268559 -173002,321622 79051,0 111218,-9110 173234,-12721 78016,-4539 105951,12721 185135,12721 -10849,-40673 -21144,-17790 -37070,-61850 11313,-13028 2476,-1714 15678,-21409 41658,-62140 67581,-120552 132611,-164140l-10 16z" class="fil2"/></g></g></svg>