<svg xmlns="http://www.w3.org/2000/svg" xmlns:xlink="http://www.w3.org/1999/xlink" width="100%" height="100%" version="1.1" viewBox="0 0 1328370 1434930" xml:space="preserve" style="shape-rendering:geometricPrecision;text-rendering:geometricPrecision;image-rendering:optimizeQuality;fill-rule:evenodd;clip-rule:evenodd"><defs><style type="text/css">.fil0{fill:url(#id0)}.fil1{fill:url(#id1)}</style><linearGradient id="id0" x1="88634" x2="1239665" y1="689354" y2="689350" gradientUnits="userSpaceOnUse"><stop offset="0" style="stop-opacity:1;stop-color:#f9aa02"/><stop offset=".502" style="stop-opacity:1;stop-color:#fcd260"/><stop offset="1" style="stop-opacity:1;stop-color:#f9aa02"/></linearGradient><linearGradient id="id1" x1="88634" x2="1239665" y1="689355" y2="689351" gradientUnits="userSpaceOnUse" xlink:href="#id0"/></defs><g id="Layer_x0020_1"><metadata id="CorelCorpID_0Corel-Layer"/><g id="_1369323579008"><path d="M958032 915385l0 0zm0 0c-9801,117907 -218595,393052 -296581,445326 -43010,-64287 -100907,-123231 -148424,-185414 -98345,-128684 -345565,-490989 -358237,-643381 -48395,12931 -132722,124127 -149223,172592 -11944,35095 -4297,29940 19402,67667 102523,163281 102642,139472 186382,247399 80419,103639 333002,336861 450100,415356 33918,-9063 153390,-109831 182463,-138974 57697,-57837 112094,-93041 166551,-154906l106142 -129841c48495,-82503 -57278,-189482 -84427,-306113 -57448,15354 -292892,279572 -358366,272145 -49750,-26351 -52053,-31386 -84964,-75763l-63330 -109791c47767,-71406 114886,-92393 160648,-160807 -17936,-26820 -23340,-42722 -49431,-61855 -39372,10528 -103091,61865 -132832,89700 -43041,40289 -84128,63081 -114327,108226 15733,67578 77887,150260 118136,203361l153728 180110c106242,-71217 190340,-163819 296581,-235036l9 -1z" class="fil0"/><path d="M204221 457697c0,72941 79193,223918 111217,284517 61386,-41147 100190,-103080 158784,-150309 60888,-49073 117648,-97348 187228,-134208 72104,48325 106989,107418 148296,185554l-163430 170418 61755 67418 126491 -101665c40937,-31635 82174,-68186 111107,-111436 -21655,-93040 -211357,-322253 -284228,-371107 -51943,34826 -249791,222523 -296580,235036 65773,-137219 33500,-98794 128425,-242553 28016,-42443 136082,-181277 168155,-202772 38235,25623 49552,42921 79422,81306l217169 289792c55254,82782 213102,345414 222434,457698l24716 0c26590,-99691 176162,-125215 103440,-251327 -170728,-296102 -621747,-646193 -634818,-664059l-250299 207139c-34666,35105 -219293,214507 -219293,250549l9 9z" class="fil1"/></g></g></svg>