<svg xmlns="http://www.w3.org/2000/svg" xmlns:xlink="http://www.w3.org/1999/xlink" width="100%" height="100%" version="1.1" viewBox="0 0 1257170 1253180" xml:space="preserve" style="shape-rendering:geometricPrecision;text-rendering:geometricPrecision;image-rendering:optimizeQuality;fill-rule:evenodd;clip-rule:evenodd"><defs><style type="text/css">.fil2{fill:url(#id0)}.fil0{fill:url(#id1)}.fil1{fill:url(#id2)}.fil3{fill:url(#id3)}</style><linearGradient id="id0" x1="90422" x2="1182020" y1="636257" y2="636253" gradientUnits="userSpaceOnUse"><stop offset="0" style="stop-opacity:1;stop-color:#06bbff"/><stop offset=".18" style="stop-opacity:1;stop-color:#08c3ff"/><stop offset=".478" style="stop-opacity:1;stop-color:#10e2ff"/><stop offset=".722" style="stop-opacity:1;stop-color:#09c7ff"/><stop offset="1" style="stop-opacity:1;stop-color:#06bbff"/></linearGradient><linearGradient id="id1" x1="90422" x2="1182020" y1="636257" y2="636253" gradientUnits="userSpaceOnUse" xlink:href="#id0"/><linearGradient id="id2" x1="90422" x2="1182020" y1="636257" y2="636253" gradientUnits="userSpaceOnUse" xlink:href="#id0"/><linearGradient id="id3" x1="90422" x2="1182020" y1="636257" y2="636253" gradientUnits="userSpaceOnUse" xlink:href="#id0"/></defs><g id="Layer_x0020_1"><metadata id="CorelCorpID_0Corel-Layer"/><g id="_1369327180864"><path d="M934656 1101865l0 0zm12360 -12371l-12359 12372 12359 -12372zm12355 -12372l-12355 12372 12355 -12372zm12359 -12371l-12359 12372 12359 -12372zm0 0c9973,-37385 237181,-314043 -33868,-584601 -35686,-35621 -61600,-64118 -110689,-87121 -115823,-54284 -226578,-60417 -339728,-23339 -71794,23523 -71810,48299 -71810,138409 99071,66406 74303,31035 190180,17006 66181,-8016 152361,22549 198277,51836 301033,192014 157318,722789 -346151,593907 -73849,-18905 -126827,-54112 -190597,-68981 171139,255829 772497,194974 944921,-241652 52876,-133902 61928,-286737 11708,-431434 -142183,-409663 -623968,-545198 -949515,-321772 -317449,217866 -191084,367709 -93618,339241 61142,-17857 206121,-312688 571685,-225903 81152,19266 131171,50932 189545,94777 95342,71610 178025,205659 189987,354433 13399,166677 -68539,333669 -160331,395200l4 -6z" class="fil0"/><path d="M403279 891573c0,82512 -2968,129145 57912,189435 138315,136980 325747,49511 349889,-40992 -54563,36574 -182573,134757 -287933,28452 -134434,-135641 79183,-305585 143858,-181190 22872,43997 15634,92636 84157,96820 100713,6149 110153,-144525 36562,-217584 -135617,-134634 -384445,-30716 -384445,125063l0 -4z" class="fil1"/><path d="M180844 644173c0,-180064 -256668,-72392 -158448,46682 61977,75134 158448,6984 158448,-46682z" class="fil2"/><path d="M143770 879205l0 61850c26651,17866 36357,28297 74148,37111l20031 -17055c72396,-77169 127,-97466 -44746,-119016 -18259,15888 9035,-5109 -20162,16924 -14369,10845 -17342,12191 -29267,20187l-4 -1z" class="fil3"/></g></g></svg>