<svg xmlns="http://www.w3.org/2000/svg" xmlns:xlink="http://www.w3.org/1999/xlink" width="100%" height="100%" version="1.1" viewBox="0 0 1101126 1323604" xml:space="preserve" style="shape-rendering:geometricPrecision;text-rendering:geometricPrecision;image-rendering:optimizeQuality;fill-rule:evenodd;clip-rule:evenodd"><defs><style type="text/css">.fil0{fill:url(#id0)}.fil1{fill:url(#id1)}</style><linearGradient id="id0" x1="73720" x2="1043128" y1="851971" y2="851967" gradientUnits="userSpaceOnUse"><stop offset="0" style="stop-opacity:1;stop-color:#fe6606"/><stop offset=".322" style="stop-opacity:1;stop-color:#fe7d29"/><stop offset=".478" style="stop-opacity:1;stop-color:#fea76b"/><stop offset=".631" style="stop-opacity:1;stop-color:#fe8638"/><stop offset="1" style="stop-opacity:1;stop-color:#fe6606"/></linearGradient><linearGradient id="id1" x1="73720" x2="1043128" y1="851971" y2="851967" gradientUnits="userSpaceOnUse" xlink:href="#id0"/></defs><g id="Layer_x0020_1"><metadata id="CorelCorpID_0Corel-Layer"/><g id="_1369329252880"><path d="M938351 680354l0 0zm-753810 -24737l-12361 12369 12361 -12369zm0 0l0 0zm358372 -136070l0 0zm395446 160815c76705,20504 206708,194993 -20716,325625 -192570,110616 -160649,83440 -362369,218660 -176275,-153371 -462002,-196976 -481554,-372676 -9505,-85376 39191,-168131 98468,-183978 -12306,46122 -32172,46657 -37523,111899 -10897,132843 81560,203978 185811,259196 -14564,-54604 -115707,-137588 -24879,-284672 46193,-74801 140916,-133260 259676,-135912 -2478,-1723 -6656,-6861 -7876,-4477l-32692 -16759c-100380,-48262 -215631,-90041 -218935,-238534l-88153 134417c-78177,103606 -275388,300267 -183891,459492 36460,63455 323588,207062 469822,321424 31795,24863 34100,38844 74093,49537 88019,-58994 87657,-96895 259581,-185480 88342,-45524 202507,-117776 251926,-205544 102866,-182672 -187093,-383023 -217126,-423197 -17357,-23218 -26035,-43188 -39395,-71898 -17475,-37562 -17955,-60670 -32550,-91119 -32440,23793 -75132,91505 -72905,147462 2911,73243 56595,100624 72905,161790 -41291,-27680 -92394,-99499 -110349,-149343 -26987,-74927 -4406,-153473 11487,-221760 -108256,28939 -148288,123536 -148288,235033 -93661,-107863 74014,-216724 101466,-258047 52440,-78940 -67681,-249164 -113819,-261501 -4406,198046 -212735,262280 -168328,427658 40221,149783 245128,166487 361047,245332 132584,90183 161090,293036 -3548,369907 -67209,31378 -181027,55713 -248480,6074 -31370,-23085 -47767,-48428 -39655,-107194 7923,-57381 35107,-60576 61898,-100616 -74298,0 -110577,-4910 -145896,39851 -36295,46004 -29725,94416 6129,136998 171767,203962 582815,46248 608669,-165763 11157,-91489 -18490,-105124 -24037,-171892l-14 7z" class="fil0"/><path d="M382264 804055c34777,-8112 62795,-24737 98862,-24737 108162,0 196110,101867 123575,210288 90348,-7530 219281,-113323 96572,-245112 -37491,-40261 -47861,-46885 -115856,-58365 -106997,-18065 -162278,40599 -203152,117926l-1 0z" class="fil1"/></g></g></svg>