<svg xmlns="http://www.w3.org/2000/svg" xmlns:xlink="http://www.w3.org/1999/xlink" width="100%" height="100%" version="1.1" viewBox="0 0 1357010 1335968" xml:space="preserve" style="shape-rendering:geometricPrecision;text-rendering:geometricPrecision;image-rendering:optimizeQuality;fill-rule:evenodd;clip-rule:evenodd"><defs><style type="text/css">.fil1{fill:url(#id0)}.fil4{fill:url(#id1)}.fil0{fill:url(#id2)}.fil2{fill:url(#id3)}.fil3{fill:url(#id4)}</style><linearGradient id="id0" x1="76303" x2="1272695" y1="604614" y2="604610" gradientUnits="userSpaceOnUse"><stop offset="0" style="stop-opacity:1;stop-color:#32d9a1"/><stop offset=".31" style="stop-opacity:1;stop-color:#49dea9"/><stop offset=".478" style="stop-opacity:1;stop-color:#aef2cd"/><stop offset=".678" style="stop-opacity:1;stop-color:#6de5b6"/><stop offset="1" style="stop-opacity:1;stop-color:#32d9a1"/></linearGradient><linearGradient id="id1" x1="76303" x2="1272695" y1="604614" y2="604610" gradientUnits="userSpaceOnUse" xlink:href="#id0"/><linearGradient id="id2" x1="76303" x2="1272695" y1="604614" y2="604610" gradientUnits="userSpaceOnUse" xlink:href="#id0"/><linearGradient id="id3" x1="76303" x2="1272695" y1="604614" y2="604610" gradientUnits="userSpaceOnUse" xlink:href="#id0"/><linearGradient id="id4" x1="76303" x2="1272695" y1="604614" y2="604610" gradientUnits="userSpaceOnUse" xlink:href="#id0"/></defs><g id="Layer_x0020_1"><metadata id="CorelCorpID_0Corel-Layer"/><g id="_1369326835440"><path d="M630237 1113308c36558,-9772 20031,-5033 49430,-24740 29399,19706 12870,14968 49430,24740 -12500,46865 -24179,31192 -37072,86591l-61788 -86591zm-24716 -49480c41895,-36453 49096,-26642 61788,-74221l24716 0c10959,41086 -7082,7067 21480,40348l40308 33873c-49718,-4141 -44999,-18178 -74146,-18178 -29147,0 -24427,14037 -74146,18178zm-506660 -655615c0,287331 308734,232190 444778,309346 132185,74968 151008,217421 41785,277683 -77300,42648 -51011,-3639 -140553,-5635 6158,74074 60712,71467 123916,160471 27166,38256 86855,135764 98521,185890l24716 0c44780,-192404 215630,-264482 222437,-346362 -86900,1938 -61100,43847 -132314,10060 -123939,-58803 -137482,-274478 195707,-330075 406782,-67878 262628,-332808 233189,-459301l-24716 0c0,393855 -450288,404016 -494302,569025l-24716 0c-16067,-60235 -78653,-98554 -131855,-127783 -68448,-37603 -111603,-54364 -174900,-97064 -97151,-65542 -187548,-196266 -187548,-356547 -45704,33520 -74146,130496 -74146,210293l1 -1z" class="fil0"/><path d="M827957 977237c50577,0 68848,1880 74146,-61851 -171839,-14314 -113446,-148442 -37073,-148442 69712,0 193050,112055 318832,72612 231912,-72725 164236,-319037 163115,-369494 -86250,57815 -109776,231374 -358208,235194 -165912,2551 -263885,81015 -239121,188784 8584,37354 41022,83198 78310,83198l-1 -1z" class="fil1"/><path d="M0 581394c0,165610 131355,318894 332033,245809 31082,-11320 236416,-131264 236416,13963 0,49439 -62446,70158 -111217,74221 12158,146252 229197,16277 132939,-120372 -111182,-157838 -262169,-25635 -431697,-161962 -79780,-64154 -95617,-129141 -146116,-162990 -1244,55942 -12357,49160 -12357,111332l-1 -1z" class="fil2"/><path d="M951534 173181c0,207597 -58000,325371 -210080,457694 133106,-11088 370728,-142369 370728,-284512 0,-193605 -20399,-245894 -210080,-346363 14128,60706 49431,98435 49431,173182l1 -1z" class="fil3"/><path d="M247151 259771c0,119024 13092,194013 123203,272517 48502,34580 172137,92307 247525,98587 -18828,-25723 -49130,-41320 -77682,-70681 -97882,-100656 -132397,-240802 -132397,-387012 0,-74747 35302,-112474 49431,-173182 -73249,38798 -80050,34006 -139456,95436 -38676,39994 -70624,91017 -70624,164337l0 -2z" class="fil4"/></g></g></svg>