<svg xmlns="http://www.w3.org/2000/svg" xmlns:xlink="http://www.w3.org/1999/xlink" width="957.679" height="813.449" version="1.1" viewBox="0 0 19683.48 16719.07" xml:space="preserve" style="shape-rendering:geometricPrecision;text-rendering:geometricPrecision;image-rendering:optimizeQuality;fill-rule:evenodd;clip-rule:evenodd"><defs><style type="text/css">.fil10{fill:url(#id18)}.fil10,.fil11,.fil3{fill-rule:nonzero}.fil11{fill:url(#id19)}.fil3{fill:url(#id20)}.fil15,.fil17,.fil2{fill-rule:nonzero}.fil2{fill:url(#id21)}.fil17{fill:url(#id22)}.fil15{fill:url(#id23)}.fil0,.fil18,.fil19{fill-rule:nonzero}.fil18,.fil19{fill:url(#id24)}.fil19{fill:url(#id25)}.fil0{fill:url(#id26)}.fil12,.fil14,.fil8{fill-rule:nonzero}.fil8{fill:url(#id27)}.fil14{fill:url(#id28)}.fil12{fill:url(#id29)}.fil13{fill:url(#id30)}.fil13,.fil16,.fil4{fill-rule:nonzero}.fil4{fill:url(#id31)}.fil16{fill:url(#id32)}.fil1,.fil20,.fil5{fill-rule:nonzero}.fil5{fill:url(#id33)}.fil1{fill:url(#id34)}.fil20{fill:url(#id35)}.fil6,.fil7,.fil9{fill-rule:nonzero}.fil9{fill:url(#id36)}.fil6{fill:url(#id37)}.fil7{fill:url(#id38)}</style><mask id="id0"><linearGradient id="id1" x1="8662.63" x2="8778.83" y1="1629.36" y2="411.9" gradientUnits="userSpaceOnUse"><stop offset="0" style="stop-opacity:1;stop-color:white"/><stop offset="1" style="stop-opacity:0;stop-color:white"/></linearGradient><rect style="fill:url(#id1)" width="1104.8" height="2991.73" x="8136.75" y="237.09"/></mask><mask id="id2"><linearGradient id="id3" x1="17737.23" x2="19259.54" y1="7286.24" y2="7187.38" gradientUnits="userSpaceOnUse"><stop offset="0" style="stop-opacity:1;stop-color:white"/><stop offset="1" style="stop-opacity:0;stop-color:white"/></linearGradient><rect style="fill:url(#id3)" width="4268.34" height="1116.6" x="15428.88" y="6909.47"/></mask><mask id="id4"><linearGradient id="id5" x1="12326.54" x2="13123.18" y1="2048.5" y2="556.31" gradientUnits="userSpaceOnUse"><stop offset="0" style="stop-opacity:1;stop-color:white"/><stop offset="1" style="stop-opacity:0;stop-color:white"/></linearGradient><rect style="fill:url(#id5)" width="1951.15" height="4124.49" x="11350.97" y="-13.75"/></mask><mask id="id6"><linearGradient id="id7" x1="15463.63" x2="17262.73" y1="4004.36" y2="2739.06" gradientUnits="userSpaceOnUse"><stop offset="0" style="stop-opacity:1;stop-color:white"/><stop offset="1" style="stop-opacity:0;stop-color:white"/></linearGradient><rect style="fill:url(#id7)" width="3820.89" height="2875.94" x="13287.5" y="2711.42"/></mask><mask id="id8"><linearGradient id="id9" x1="12281.53" x2="13270.98" y1="14778.43" y2="16396.89" gradientUnits="userSpaceOnUse"><stop offset="0" style="stop-opacity:1;stop-color:white"/><stop offset="1" style="stop-opacity:0;stop-color:white"/></linearGradient><rect style="fill:url(#id9)" width="2146.03" height="3908.76" x="11208.52" y="12824.05"/></mask><mask id="id10"><linearGradient id="id11" x1="14218.1" x2="15226.39" y1="14621.03" y2="15273.46" gradientUnits="userSpaceOnUse"><stop offset="0" style="stop-opacity:1;stop-color:white"/><stop offset="1" style="stop-opacity:0;stop-color:white"/></linearGradient><rect style="fill:url(#id11)" width="3530.42" height="2881.42" x="12188.8" y="12600.7"/></mask><mask id="id12"><linearGradient id="id13" x1="1236.79" x2="301.85" y1="12054.29" y2="12601.04" gradientUnits="userSpaceOnUse"><stop offset="0" style="stop-opacity:1;stop-color:white"/><stop offset="1" style="stop-opacity:0;stop-color:white"/></linearGradient><rect style="fill:url(#id13)" width="2501.08" height="1305.79" x="-13.75" y="11401.4"/></mask><mask id="id14"><linearGradient id="id15" x1="1683.7" x2="570.8" y1="9895.92" y2="10010.11" gradientUnits="userSpaceOnUse"><stop offset="0" style="stop-opacity:1;stop-color:white"/><stop offset="1" style="stop-opacity:0;stop-color:white"/></linearGradient><rect style="fill:url(#id15)" width="3679.07" height="1008.3" x="247.44" y="9368.76"/></mask><mask id="id16"><linearGradient id="id17" x1="3609.33" x2="2367.03" y1="12913.4" y2="13719.24" gradientUnits="userSpaceOnUse"><stop offset="0" style="stop-opacity:1;stop-color:white"/><stop offset="1" style="stop-opacity:0;stop-color:white"/></linearGradient><rect style="fill:url(#id17)" width="3282.97" height="1810.92" x="1967.85" y="12007.95"/></mask><linearGradient id="id18" x1="14998.8" x2="17215.53" y1="9041.98" y2="9542.87" gradientUnits="userSpaceOnUse"><stop offset="0" style="stop-opacity:1;stop-color:#fff899"/><stop offset="1" style="stop-opacity:1;stop-color:#eca06e"/></linearGradient><linearGradient id="id19" x1="10036.9" x2="10213.26" y1="13559.69" y2="15823.74" gradientUnits="userSpaceOnUse" xlink:href="#id18"/><linearGradient id="id20" x1="12167.48" x2="12603.03" y1="3055.45" y2="851.44" gradientUnits="userSpaceOnUse"><stop offset="0" style="stop-opacity:1;stop-color:#fbffcc"/><stop offset="1" style="stop-opacity:1;stop-color:#eca06e"/></linearGradient><linearGradient id="id21" x1="16629.36" x2="18820.3" y1="7621.06" y2="7235.14" gradientUnits="userSpaceOnUse" xlink:href="#id20"/><linearGradient id="id22" x1="7600.09" x2="6825.34" y1="15222.33" y2="15719.64" gradientUnits="userSpaceOnUse" xlink:href="#id20"/><linearGradient id="id23" x1="15876.29" x2="16518.22" y1="13905.44" y2="14725.23" gradientUnits="userSpaceOnUse" xlink:href="#id20"/><linearGradient id="id24" x1="1820.83" x2="506.8" y1="12072.23" y2="12136.25" gradientUnits="userSpaceOnUse" xlink:href="#id20"/><linearGradient id="id25" x1="2762.18" x2="1073.69" y1="10144.15" y2="9532.74" gradientUnits="userSpaceOnUse" xlink:href="#id20"/><linearGradient id="id26" x1="4730.76" x2="3657.87" y1="3621.12" y2="2502.58" gradientUnits="userSpaceOnUse" xlink:href="#id20"/><linearGradient id="id27" x1="10040.56" x2="10392.59" y1="3106.36" y2="1645.02" gradientUnits="userSpaceOnUse" xlink:href="#id20"/><linearGradient id="id28" x1="13259.96" x2="14747.81" y1="13342.58" y2="15541.7" gradientUnits="userSpaceOnUse" xlink:href="#id18"/><linearGradient id="id29" x1="6074.31" x2="5226.81" y1="13767.53" y2="15030.76" gradientUnits="userSpaceOnUse" xlink:href="#id18"/><linearGradient id="id30" x1="11844.61" x2="12626.4" y1="13879.72" y2="16017.17" gradientUnits="userSpaceOnUse" xlink:href="#id18"/><linearGradient id="id31" x1="14239.35" x2="16493.52" y1="4454.49" y2="3648.38" gradientUnits="userSpaceOnUse" xlink:href="#id20"/><linearGradient id="id32" x1="15800.98" x2="16664.44" y1="14028.32" y2="14347.64" gradientUnits="userSpaceOnUse" xlink:href="#id20"/><linearGradient id="id33" x1="13188.05" x2="13722.43" y1="4200.24" y2="2671.88" gradientUnits="userSpaceOnUse" xlink:href="#id20"/><linearGradient id="id34" x1="8564.97" x2="8726.11" y1="2428.79" y2="881.19" gradientUnits="userSpaceOnUse" xlink:href="#id20"/><linearGradient id="id35" x1="4374.21" x2="2653.98" y1="12971.65" y2="13004.32" gradientUnits="userSpaceOnUse" xlink:href="#id18"/><linearGradient id="id36" x1="15590.54" x2="17807.27" y1="6102.59" y2="5601.69" gradientUnits="userSpaceOnUse" xlink:href="#id20"/><linearGradient id="id37" x1="5115.5" x2="2413.19" y1="5632.12" y2="4589.77" gradientUnits="userSpaceOnUse" xlink:href="#id18"/><linearGradient id="id38" x1="7255.54" x2="6228.3" y1="3721.87" y2="2166.72" gradientUnits="userSpaceOnUse" xlink:href="#id20"/></defs><g id="Layer_x0020_1"><metadata id="CorelCorpID_0Corel-Layer"/><path d="M4283.71 2625.99c-162.01,-124.16 155.59,133.01 0,0 -52.46,-44.85 -101.75,-93.96 -152.43,-141.19 -48.89,-45.54 -97.2,-91.74 -146.68,-136.56 -51.32,-46.45 -107.49,-88.35 -154.61,-138.18 -46.26,-48.92 -116.84,-56.38 -150.65,-121.56 -3.52,-6.79 -89.28,-49.14 -100.87,-55.21 -2.66,2.54 -5.33,5.06 -8,7.6 40.27,24.54 -190.2,-138.57 -197.07,-117.67 -5.82,17.67 14.25,464.91 109.08,886.69 7.64,33.9 26.02,62.35 48.3,91.65 109.2,143.69 218.11,287.52 327.88,430.89 11.54,15.07 27.14,28.84 42.34,40.86 85.84,67.88 155.81,152.78 228.49,231.43 82.53,89.32 178.53,154.04 265.97,232.79 9.91,8.92 30.01,21.44 32.48,7.58 4.06,-22.85 17.43,-9.07 31.45,-2.4 105.87,50.43 207.01,119.72 312.79,171.19 103.71,50.45 207.05,99.89 312.2,131.75 59.86,18.14 114.77,9.99 175.82,34.4 35.64,14.26 54.68,7.81 60.48,-27.41 6.35,-38.48 4.54,-52.63 -36.34,-75.93 -20.56,-11.73 -41.86,-20.87 -62.82,-31.17 -384.11,-652.19 -618.5,-1174.87 -937.82,-1419.55z" class="fil0"/><path style="mask:url(#id0)" d="M8213.39 1354.96c76.37,-195.68 -62.69,199.07 0,0 21.14,-67.11 35.6,-135.83 53.02,-203.82 16.8,-65.58 32.47,-131.36 50.47,-196.7 18.67,-67.75 46.04,-134.66 57.65,-202.68 11.4,-66.76 80.72,-114.29 66.29,-186.9 -1.51,-7.56 57,-92.24 64.64,-103.96 4.79,0.5 9.59,0.97 14.38,1.44 -23.86,43.53 95.22,-223.92 118.7,-211.05 19.85,10.87 344.33,384.45 569.59,781.4 18.09,31.91 20.52,65.73 19.47,102.53 -5.08,180.44 -9.74,360.82 -15.67,541.32 -0.62,18.97 -6.57,39.29 -13.45,57.95 -38.85,105.37 -47.64,215.19 -64.16,321.54 -18.74,120.76 -70.84,229.56 -102.97,344.67 -3.64,13.04 -15.34,34.99 -28.69,25.23 -21.99,-16.1 -25.57,2.91 -35.32,16.55 -73.66,103.04 -127.68,218.55 -200.43,322.38 -71.32,101.78 -143.06,202.53 -230.3,290.12 -49.67,49.86 -114.39,75.56 -160.47,131.2 -26.89,32.49 -52.14,38.46 -85.55,13.38 -36.52,-27.4 -45.52,-39.91 -20.05,-82.78 12.81,-21.59 28.41,-41.49 42.73,-62.15 -95.62,-753.4 -250.4,-1314 -99.86,-1699.67z" class="fil1"/><path style="mask:url(#id2)" d="M18005.44 6930.52c297.79,21.35 -298.16,-7.25 0,0 100.51,2.44 201.13,-1.99 301.69,-3.38 96.97,-1.33 193.88,-3.81 290.92,-3.92 100.62,-0.1 202.85,8.41 301.58,1.41 96.91,-6.87 185.51,47.34 282.3,13.97 10.08,-3.48 147.11,30.33 165.93,34.58 0.85,4.75 1.72,9.52 2.59,14.27 -68.45,-11.39 343.28,32 332.82,58.11 -8.82,22.08 -426.68,435.39 -908.96,759.14 -38.78,26.01 -85.24,37.41 -136.98,46.25 -253.65,43.4 -507.11,87.18 -761.14,129.78 -26.7,4.47 -56.99,4.16 -85.25,2.52 -159.64,-9.3 -315.85,11.6 -469.69,24.13 -174.69,14.24 -343.35,-6.94 -514.43,-7.16 -19.38,-0.03 -53.79,-5.45 -44.43,-20.95 15.44,-25.54 -12.26,-23.91 -34.44,-29.67 -167.52,-43.54 -346.17,-64.78 -514.52,-107.23 -165.02,-41.62 -328.73,-83.92 -479.02,-144.71 -85.57,-34.61 -142.2,-90.24 -234.68,-119.83 -54,-17.28 -70.43,-40.04 -46.1,-79.03 26.57,-42.59 41.15,-54.63 109.2,-41.51 34.25,6.59 67.05,16.32 100.5,24.63 1021.72,-294.01 1755.19,-593.53 2342.13,-551.4z" class="fil2"/><path style="mask:url(#id4)" d="M11982.75 1500.57c163.27,-265.83 -148.27,271.68 0,0 49.98,-91.59 92.64,-185.95 138.53,-279.08 44.26,-89.81 87.26,-180 132.86,-269.38 47.3,-92.68 104.62,-183.48 143.62,-277.11 38.27,-91.91 138.28,-152.29 148.03,-254.45 1,-10.63 101.91,-123.58 115.34,-139.24 5.51,1.08 11.03,2.14 16.55,3.19 -44.5,58.56 196.15,-303.54 219.27,-283.71 19.57,16.76 266.84,563.05 387.51,1133.64 9.68,45.87 0.04,93.11 -14.84,144.2 -72.89,250.51 -145.26,500.98 -219.18,751.52 -7.77,26.33 -22.36,54.09 -37.45,79.48 -85.22,143.34 -136.35,295.32 -195.38,441.87 -67.01,166.4 -169.25,313.4 -250.09,470.83 -9.17,17.84 -31.2,47.39 -43.45,32.72 -20.17,-24.2 -31.47,1.93 -48.12,20.1 -125.72,137.22 -232.72,293.4 -357.67,431.79 -122.48,135.66 -245.07,269.86 -381.21,384.46 -77.51,65.25 -163.97,95.65 -239.35,169.22 -44.01,42.97 -76.22,49.19 -106.64,11.55 -33.25,-41.12 -39.32,-59.25 6.84,-116.78 23.23,-28.95 49.14,-55.35 73.82,-82.9 165.47,-1055.62 189.19,-1848.01 511.01,-2371.92z" class="fil3"/><path style="mask:url(#id6)" d="M15754.67 4505.56c231.58,-209.02 -240.07,195.35 0,0 80.94,-65.85 165.94,-125.01 249.13,-187.11 80.22,-59.91 161.06,-118.64 240.62,-179.78 82.5,-63.42 161.31,-136.33 246.25,-191.76 83.38,-54.4 124.52,-163.75 223.18,-191.97 10.28,-2.93 102.91,-122.74 115.87,-138.81 -2.07,-5.22 -4.12,-10.46 -6.16,-15.7 -49.46,54.44 262.67,-248.22 238.95,-267.34 -20.05,-16.19 219.51,-593.37 -363.52,-607.92 -46.87,-1.15 -913.34,450.68 -960.87,474.63 -233.01,117.36 -466.07,234.21 -698.92,352.6 -24.47,12.44 -49.1,31.87 -71.31,51.32 -125.39,109.94 -265.49,187.94 -398.8,272.72 -151.39,96.25 -277.27,223.58 -417.31,331.79 -15.86,12.27 -40.91,39.32 -24.24,48.68 27.47,15.43 3.84,31.3 -10.98,50.98 -111.99,148.64 -246.02,282.34 -359.3,430.44 -111.04,145.17 -220.62,290.19 -308.47,444.95 -50.01,88.11 -64.13,178.67 -122.71,266.21 -34.21,51.11 -34.46,83.92 8.1,106.96 46.49,25.19 65.42,27.86 113.56,-28.03 24.24,-28.11 45.46,-58.41 68.05,-87.7 1007.72,-355.28 1782.48,-523.16 2238.89,-935.16z" class="fil4"/><path d="M13221.1 3074.58c190.86,-156.53 -179.79,162.56 0,0 60.61,-54.8 115.79,-112.5 173.36,-168.91 55.53,-54.39 110.11,-109.23 166.64,-163.15 58.64,-55.91 125.11,-109.16 177.12,-166.87 51.06,-56.65 146.11,-83.44 175.92,-150.97 3.1,-7.03 110.11,-69.14 124.48,-77.84 4.3,1.49 8.61,2.98 12.93,4.46 -49.06,33.29 225.92,-177.38 240.7,-160.79 12.51,14.03 99.16,416.89 76.61,818.49 -1.83,32.28 -19.83,62.79 -42.96,95.18 -113.32,158.78 -226.22,317.61 -340.41,476.27 -12,16.67 -29.92,33.36 -47.73,48.38 -100.6,84.79 -175.04,180.17 -254.81,270.77 -90.56,102.88 -205.93,187.78 -305.94,282.68 -11.33,10.75 -35.75,27.61 -42.68,16.01 -11.42,-19.13 -26.27,-3.08 -43.83,6.85 -132.58,75.02 -253.82,165.45 -386.02,241.37 -129.59,74.43 -258.95,147.84 -395.28,206.17 -77.61,33.21 -155.14,41.67 -232.78,80.78 -45.32,22.85 -73.12,22.55 -90.1,-7.07 -18.55,-32.36 -19.67,-45.43 30.54,-77.8 25.25,-16.29 52.18,-30.48 78.34,-45.62 361.15,-688.84 549.67,-1219.91 925.88,-1528.39z" class="fil5"/><path d="M3440.3 4638.99c-359.14,-116.51 359.18,126.55 0,0 -121.09,-42.66 -242.1,-90.17 -363.14,-135.53 -116.72,-43.74 -233.33,-88.25 -350.16,-131.17 -121.15,-44.49 -244.47,-83.66 -363.14,-132.14 -116.48,-47.58 -224.67,-48.78 -340.28,-114.84 -12.03,-6.88 -177.96,-43.71 -200.74,-49.05 -1.15,2.95 -2.33,5.9 -3.52,8.83 82.73,22.25 -414.19,-129.14 -402.33,-106.26 10.01,19.33 501.64,492.92 1073.3,932.3 45.97,35.31 101.59,63.8 163.64,92.82 304.2,142.34 608.14,284.84 912.82,426.78 32.01,14.91 68.48,28.07 102.56,39.39 192.46,63.96 379.96,147.54 564.84,224.21 209.93,87.07 413.59,146.71 619.58,222.08 23.34,8.54 64.91,19.93 54.07,4.96 -17.87,-24.68 15.42,-11.31 42.28,-5.55 202.91,43.49 418.6,107.5 622.47,152.11 199.84,43.73 398.13,86.41 580.76,110.22 103.98,13.56 173.72,-0.35 285.88,19.77 65.5,11.75 85.92,3.08 57.7,-34.93 -30.82,-41.53 -48.03,-56.38 -130.33,-77.25 -41.42,-10.51 -81.18,-18.19 -121.69,-27.14 -1221.99,-656.69 -2096.76,-1189.98 -2804.6,-1419.61z" class="fil6"/><path d="M6748.27 2575.96c-144.74,-195.14 141.02,200.42 0,0 -47.54,-67.56 -93.23,-137.64 -139.73,-206.6 -44.85,-66.5 -89.35,-133.36 -134.57,-199.46 -46.89,-68.55 -96.9,-135.12 -141,-204.82 -43.29,-68.43 -99.55,-109.44 -135.48,-187.23 -3.74,-8.1 -76.95,-89.35 -86.89,-100.65 -1.71,1.12 -3.43,2.22 -5.15,3.32 35.06,42.55 -168.88,-222.31 -171.2,-205.89 -1.97,13.87 78.91,445.63 214.51,889.33 10.91,35.67 29.43,71.37 51.12,109.74 106.31,188.17 212.41,376.33 319.12,564.46 11.21,19.77 25.42,40.29 39.05,58.94 77,105.37 144.07,219.17 212.34,328.38 77.53,124.01 162.01,231.3 241.84,347.7 9.05,13.18 26.58,34.68 26.5,22.78 -0.16,-19.61 12.3,-0.17 24.24,12.87 90.11,98.55 179.27,212.61 269.47,312.1 88.42,97.52 176.42,193.92 263.25,274.58 49.44,45.93 91.18,64.67 142.47,117.09 29.94,30.61 43.87,33.68 43.28,3.23 -0.64,-33.27 -4.12,-47.49 -39.47,-89.15 -17.79,-20.97 -35.76,-39.84 -53.65,-59.65 -395.34,-800.38 -654.74,-1406.47 -940.03,-1791.08z" class="fil7"/><path d="M10437.3 2176.8c35.45,-192.71 -40.62,193.42 0,0 13.69,-65.21 29.88,-130.71 44.97,-196.07 14.54,-63.03 29.5,-126.06 43.6,-189.08 14.64,-65.36 26.38,-131.48 43.23,-195.84 16.54,-63.18 9.77,-118.92 35.88,-182.9 2.72,-6.66 10.35,-94.53 11.55,-106.62 -1.6,-0.39 -3.19,-0.8 -4.79,-1.2 -5.8,44.08 38.2,-221.9 27.24,-214.24 -9.27,6.47 -219.4,291.69 -406.48,615.75 -15.03,26.05 -25.89,56.61 -36.6,90.52 -52.49,166.21 -105.08,332.29 -157.34,498.72 -5.49,17.49 -9.77,37.16 -13.28,55.46 -19.79,103.38 -50,205.53 -76.84,305.88 -30.48,113.94 -47.28,222.78 -72.01,333.9 -2.8,12.59 -5.83,34.75 1.13,28.16 11.48,-10.88 6.87,7.16 5.75,21.38 -8.54,107.36 -26.77,222.68 -35.83,330.61 -8.87,105.79 -17.31,210.72 -17.11,306.31 0.12,54.42 12.03,89.35 9.32,148.43 -1.58,34.5 4.28,44.41 21.91,27.31 19.27,-18.68 25.74,-28.56 30.86,-72.32 2.58,-22.02 3.81,-43 5.66,-64.45 254.54,-673.46 469.27,-1159.86 539.15,-1539.69z" class="fil8"/><path d="M17116.27 6018.24c284.99,-80.92 -289.4,74.4 0,0 97.56,-25.08 197.19,-46.97 295.9,-70.27 95.19,-22.47 190.64,-44.39 285.53,-67.44 98.4,-23.92 195.9,-52.25 294.42,-72.48 96.71,-19.86 167.75,-66.34 271.97,-73.77 10.85,-0.77 135.09,-49.23 152.27,-55.71 -0.54,-2.42 -1.06,-4.86 -1.57,-7.29 -63.64,21.63 326.4,-96.74 308.67,-106.47 -14.97,-8.23 -542.29,-102.2 -1106.83,-138.89 -45.39,-2.94 -94.08,2.79 -147.21,10.97 -260.45,40.1 -520.82,79.97 -781.41,120.52 -27.39,4.26 -56.91,11.62 -84.07,19.12 -153.39,42.38 -312.11,69.79 -466.11,100.57 -174.88,34.94 -333.67,85.02 -500.86,125.87 -18.94,4.63 -51.01,15.37 -37.41,20.39 22.43,8.28 -5.11,14.11 -25.14,22.09 -151.26,60.27 -319.81,112.76 -472.18,172.73 -149.37,58.78 -297.26,117.57 -426.71,181.82 -73.7,36.58 -113.08,76.1 -194.98,111.99 -47.83,20.95 -57.34,35.52 -22.35,47.98 38.22,13.61 55.93,15.77 118.7,-6.57 31.59,-11.25 60.86,-23.62 91.17,-35.47 1083.36,-105.69 1886.51,-140.16 2448.2,-299.66z" class="fil9"/><path d="M16524.53 9126.33c284.99,80.92 -289.4,-74.4 0,0 97.56,25.08 197.19,46.97 295.9,70.27 95.19,22.47 190.64,44.39 285.53,67.44 98.4,23.92 195.9,52.25 294.42,72.48 96.71,19.86 167.75,66.34 271.97,73.77 10.85,0.77 135.09,49.23 152.27,55.71 -0.54,2.42 -1.06,4.86 -1.57,7.29 -63.64,-21.63 326.4,96.74 308.67,106.47 -14.97,8.23 -542.29,102.2 -1106.83,138.89 -45.39,2.94 -94.08,-2.79 -147.21,-10.97 -260.45,-40.1 -520.82,-79.97 -781.41,-120.52 -27.39,-4.26 -56.91,-11.62 -84.07,-19.12 -153.39,-42.38 -312.11,-69.79 -466.11,-100.57 -174.88,-34.94 -333.67,-85.02 -500.86,-125.87 -18.94,-4.63 -51.01,-15.37 -37.41,-20.39 22.43,-8.28 -5.11,-14.11 -25.14,-22.09 -151.26,-60.27 -319.81,-112.76 -472.18,-172.73 -149.37,-58.78 -297.26,-117.57 -426.71,-181.82 -73.7,-36.58 -113.08,-76.1 -194.98,-111.99 -47.83,-20.95 -57.34,-35.52 -22.35,-47.98 38.22,-13.61 55.93,-15.77 118.7,6.57 31.59,11.25 60.86,23.62 91.17,35.47 1083.36,105.69 1886.51,140.16 2448.2,299.66z" class="fil10"/><path d="M10366.38 15044.25c3.33,296.23 -9.85,-298.59 0,0 3.32,100.67 9.8,202.4 14.88,303.65 4.9,97.65 10.32,195.38 14.66,292.91 4.5,101.13 5.1,202.66 12.69,302.86 7.44,98.36 -13.58,179.72 6.04,281.71 2.05,10.62 -7.45,143.52 -8.57,161.83 -2.15,0.18 -4.3,0.38 -6.46,0.59 2.22,-67.17 0.45,340.42 -12.03,326.22 -10.54,-12 -219.15,-490.51 -389.4,-1021.06 -13.67,-42.66 -20.97,-90.97 -27.33,-144.22 -31.17,-261.06 -62.52,-521.96 -93.34,-783.28 -3.24,-27.47 -4.44,-57.86 -4.93,-86.03 -2.78,-159.1 -19.3,-319.04 -31.86,-475.41 -14.28,-177.57 -11.99,-344.06 -19.44,-515.95 -0.85,-19.47 0.13,-53.27 7.67,-41.68 12.43,19.13 10.46,-8.93 12.13,-30.4 12.62,-162.18 14.5,-338.69 26.59,-501.85 11.85,-159.93 24.07,-318.46 45.4,-460.87 12.14,-81.08 35.23,-130.11 44.76,-218.84 5.55,-51.81 15.3,-65.1 34.31,-35.12 20.77,32.74 26.96,49.1 23.93,115.63 -1.51,33.48 -4.54,65.07 -6.88,97.51 180.41,1068.43 350.61,1847.95 357.17,2431.8z" class="fil11"/><path d="M5630.99 14684.65c-121.26,157.09 118.83,-161.03 0,0 -40.05,54.29 -78.89,110.46 -118.27,165.78 -37.98,53.36 -75.71,106.98 -113.93,160.04 -39.64,55.02 -81.48,108.64 -119.11,164.45 -36.93,54.79 -81.77,88.82 -113.8,150.58 -3.34,6.43 -63.53,72.34 -71.72,81.5 -1.2,-0.8 -2.42,-1.58 -3.64,-2.37 29.06,-34.38 -141.13,179.11 -141.79,166.46 -0.56,-10.68 88.51,-348.82 219.35,-698.37 10.53,-28.11 26.75,-56.52 45.52,-87.15 92.03,-150.16 183.9,-300.31 276.22,-450.46 9.7,-15.78 21.7,-32.25 33.13,-47.26 64.62,-84.78 122.35,-175.7 180.69,-263.12 66.24,-99.25 136.58,-185.81 204.04,-279.26 7.64,-10.58 22.19,-27.94 21.35,-18.71 -1.41,15.22 9.2,-0.35 18.99,-10.95 73.98,-80 148.28,-171.99 222.39,-252.73 72.64,-79.13 144.9,-157.38 215.25,-223.38 40.05,-37.57 72.54,-53.76 114.4,-96.43 24.44,-24.93 35.08,-27.86 32.62,-4.21 -2.68,25.83 -6.22,37 -35.44,70.71 -14.71,16.97 -29.41,32.32 -44.11,48.39 -348.87,636.49 -583.13,1116.9 -822.14,1426.49z" class="fil12"/><path style="mask:url(#id8)" d="M12787.67 15141.55c96.63,280.1 -109.34,-278.51 0,0 36.86,93.89 79.87,186.93 120.17,280.35 38.84,90.08 78.68,179.94 116.47,270.25 39.17,93.65 71.29,189.96 115.85,280.89 43.76,89.26 29.88,179.15 97.2,264.68 7.01,8.9 30.1,141.08 33.64,159.17 -3.91,1.44 -7.81,2.91 -11.71,4.37 -16.43,-65.27 104.8,323.89 77.5,317.73 -23.09,-5.19 -553.5,-337.58 -1029.14,-742.18 -38.23,-32.54 -66.43,-74.22 -94.4,-121.18 -137.15,-230.16 -274.58,-460.08 -411.18,-690.71 -14.36,-24.24 -25.84,-52.47 -35.35,-79 -53.71,-149.86 -132.99,-292.39 -203.89,-433.88 -80.52,-160.65 -127.16,-320.53 -193.4,-479.8 -7.5,-18.05 -16.03,-50.81 1.41,-44.22 28.74,10.88 16.53,-14.67 13.06,-36.11 -26.28,-161.89 -76.74,-331.08 -104.3,-493.58 -27.02,-159.29 -52.92,-317.46 -57.14,-465.66 -2.4,-84.38 25.15,-144.71 15.59,-234.83 -5.59,-52.62 8.32,-71.03 52.49,-53.72 48.25,18.91 64.64,30.82 79.38,95.97 7.43,32.77 11.5,64.64 17.1,96.91 658.65,910.78 1210.26,1552.49 1400.68,2104.56z" class="fil13"/><path style="mask:url(#id10)" d="M14680.58 14144.67c180.1,235.39 -196.67,-226.46 0,0 66.3,76.34 140.6,148.28 211.36,222.15 68.23,71.25 137.73,141.7 204.59,213.79 69.32,74.76 129.77,156.33 205.76,225.18 74.58,67.59 72.85,168.84 177.98,219.05 10.95,5.23 66.09,129.19 74.12,145.96 -4.91,3.73 -9.81,7.48 -14.71,11.23 -33.89,-58.33 199.07,276.17 161.7,285.42 -31.59,7.85 -796.73,-33.27 -1502.64,-180.72 -56.73,-11.87 -101.86,-38.99 -147.67,-71.69 -224.6,-160.33 -449.5,-320.25 -673.45,-481.38 -23.53,-16.93 -44,-39.66 -61.54,-61.75 -99.03,-124.78 -230.61,-227.3 -350.89,-333.55 -136.59,-120.62 -228.08,-259.87 -345.48,-387.24 -13.29,-14.43 -30.68,-43.56 -6.34,-46.71 40.15,-5.18 19.21,-24.71 10.63,-44.96 -64.87,-152.99 -163.18,-299.7 -229.87,-452.59 -65.37,-149.87 -129.05,-299.21 -162.13,-450.63 -18.84,-86.21 6.52,-164.62 -22.86,-252.7 -17.17,-51.43 -2.14,-78.51 59.64,-85.84 67.51,-8.02 91.45,-5.03 123.09,54.13 15.93,29.78 27.24,60.51 40.64,90.8 1042.48,568.02 1893.11,918.07 2248.04,1382.03z" class="fil14"/><path d="M16546.82 14257.21c84.08,106.29 -91.58,-102.1 0,0 30.87,34.42 65.35,66.78 98.24,100.04 31.71,32.08 63.99,63.78 95.08,96.26 32.24,33.68 60.48,70.53 95.71,101.46 34.58,30.37 34.61,76.63 82.99,98.84 5.04,2.31 31.21,58.56 35.01,66.16 -2.21,1.74 -4.42,3.49 -6.62,5.24 -15.94,-26.42 93.07,124.79 76.1,129.26 -14.36,3.8 -363.81,-9.83 -687.09,-72.41 -25.98,-5.03 -46.79,-17.11 -67.96,-31.75 -103.78,-71.71 -207.7,-143.23 -311.18,-215.31 -10.88,-7.57 -20.4,-17.82 -28.59,-27.79 -46.2,-56.33 -107.07,-102.27 -162.81,-149.98 -63.3,-54.17 -106.18,-117.14 -160.79,-174.53 -6.18,-6.5 -14.36,-19.68 -3.27,-21.29 18.28,-2.63 8.57,-11.41 4.48,-20.61 -30.84,-69.43 -76.89,-135.78 -108.55,-205.16 -31.05,-68.01 -61.32,-135.79 -77.64,-204.72 -9.29,-39.24 1.64,-75.23 -12.48,-115.26 -8.25,-23.37 -1.62,-35.84 26.52,-39.61 30.74,-4.12 41.69,-2.91 56.61,23.89 7.51,13.49 12.92,27.45 19.28,41.19 480.27,252.4 871.24,406.55 1036.96,616.05z" class="fil15"/><path d="M16435.98 14071c87.94,107.69 -91.33,-101.85 0,0 30.79,34.34 63.22,65.81 94.91,98.55 30.56,31.57 61.38,62.64 91.67,94.75 31.41,33.29 61.33,70.76 93.76,100.52 31.83,29.22 46.87,81.45 84.82,99.44 3.95,1.87 38.84,61.55 43.73,69.57 -0.85,2.29 -1.68,4.58 -2.51,6.88 -18.71,-27.49 99.65,127.25 90.32,134.81 -7.89,6.39 -234.38,42.33 -460.15,19.13 -18.15,-1.88 -35.29,-12.46 -53.49,-25.88 -89.23,-65.74 -178.49,-131.25 -267.65,-197.45 -9.37,-6.96 -18.74,-17.13 -27.18,-27.19 -47.64,-56.82 -101.23,-99.76 -152.15,-145.45 -57.81,-51.88 -105.51,-116.7 -158.83,-173.49 -6.04,-6.43 -15.51,-20.12 -8.99,-23.56 10.75,-5.66 1.73,-14.15 -3.85,-23.93 -42.13,-73.88 -92.94,-142.04 -135.59,-215.74 -41.8,-72.24 -83.04,-144.34 -115.79,-219.79 -18.64,-42.96 -23.37,-85.19 -45.34,-128.33 -12.83,-25.18 -12.66,-40.23 3.99,-48.62 18.2,-9.17 25.55,-9.42 43.73,18.67 9.16,14.13 17.13,29.1 25.63,43.69 387.14,214.5 685.63,331.16 858.95,543.41z" class="fil16"/><path d="M6989.07 15400.4c-62.77,124.06 67.33,-119.09 0,0 -22.71,40.15 -47.6,77.84 -71.53,116.62 -23.07,37.4 -46.49,74.36 -69.19,112.22 -23.53,39.28 -44.71,82.29 -69.98,118.32 -24.81,35.37 -28.28,89.61 -61.49,115.33 -3.46,2.68 -24.71,68.45 -27.76,77.34 1.31,2.06 2.62,4.12 3.92,6.18 12.37,-30.86 -70,145.68 -59.26,151.06 9.07,4.54 238,-9 453.51,-80.14 17.32,-5.73 31.8,-19.75 46.69,-36.76 73.03,-83.37 146.13,-166.52 219,-250.32 7.66,-8.81 14.64,-20.75 20.71,-32.39 34.33,-65.73 77.45,-119.18 117.36,-174.74 45.32,-63.09 77.98,-136.64 117.87,-203.55 4.51,-7.58 10.83,-22.99 3.72,-24.94 -11.72,-3.22 -4.74,-13.45 -1.39,-24.2 25.29,-81.21 60.27,-158.69 86.09,-239.83 25.32,-79.53 50.11,-158.8 65.89,-239.52 8.99,-45.96 4.54,-88.23 16.73,-135.07 7.12,-27.35 3.72,-42.02 -14.35,-46.63 -19.74,-5.04 -26.97,-3.71 -38.7,27.62 -5.9,15.77 -10.47,32.11 -15.65,48.18 -332.04,292.63 -598.51,470.67 -722.2,715.21z" class="fil17"/><path style="mask:url(#id12)" d="M937.07 11857.44c-166.14,108.96 168.26,-99.55 0,0 -56.72,33.56 -114.43,62.52 -171.7,93.51 -55.23,29.89 -110.57,58.98 -165.66,89.71 -57.13,31.88 -114.01,70.08 -170.99,96.71 -55.94,26.12 -98.88,90.85 -158.35,99.05 -6.19,0.85 -79.39,67.19 -89.5,76.03 0.16,3.48 0.31,6.97 0.47,10.46 37.3,-29.43 -190.51,130.59 -181.04,144.89 8,12.1 301.23,158.44 618.87,223.87 25.54,5.24 53.46,-1.81 84.03,-12.27 149.86,-51.24 299.67,-102.15 449.64,-154.05 15.75,-5.45 32.91,-15.28 48.73,-25.36 89.35,-56.96 180.85,-92.44 269.87,-132.84 101.09,-45.85 193.96,-113.69 291.03,-168.16 11,-6.18 29.79,-20.76 22.38,-28.25 -12.22,-12.34 3.71,-20.03 15.52,-30.97 89.19,-82.57 187.72,-153.63 277.52,-235.74 88.03,-80.49 175.22,-161.01 252.29,-249.77 43.87,-50.52 68.48,-106.05 116.96,-155.39 28.31,-28.8 34.55,-49.39 15.46,-67.98 -20.87,-20.31 -30.77,-23.82 -67.62,6.64 -18.54,15.33 -35.84,32.31 -53.71,48.54 -619.81,125.91 -1076.76,156.6 -1404.2,371.37z" class="fil18"/><path style="mask:url(#id14)" d="M1762.36 9408.24c-266.6,49.72 264.32,-36.75 0,0 -89.11,12.38 -177.03,18.46 -265.47,27.32 -85.29,8.56 -170.31,16.06 -255.87,25.74 -88.74,10.06 -180.48,28.21 -266.26,31.73 -84.2,3.45 -172.37,62.34 -251.57,41.36 -8.25,-2.19 -135.36,42.79 -152.75,48.61 -1.62,4.47 -3.27,8.94 -4.92,13.41 62.47,-17.41 -308.69,64.13 -304.29,87.13 3.71,19.45 295.9,358.16 661.47,607.84 29.39,20.06 68.27,25.88 112.27,28.8 215.71,14.4 431.17,29.18 647.37,42.8 22.71,1.44 49.49,-1.9 74.72,-6.27 142.52,-24.68 276.43,-21.18 409.82,-25.15 151.45,-4.51 304.12,-41.04 455.06,-58.49 17.11,-1.98 48.45,-10.46 43.06,-23.79 -8.89,-21.98 15.23,-23.27 35.86,-30.82 155.8,-57.02 317.3,-94.61 473.63,-150.72 153.24,-55 305.46,-110.49 449.25,-181.67 81.86,-40.53 142.1,-97.49 229.13,-134.09 50.82,-21.36 69.52,-44.01 55.26,-77.47 -15.58,-36.56 -26.21,-46.2 -88.65,-27.24 -31.43,9.53 -62.16,21.81 -93.19,32.84 -846.86,-167.85 -1438.45,-369.87 -1963.92,-271.84z" class="fil19"/><path style="mask:url(#id16)" d="M3093.38 12887.35c-231.79,152.02 234.75,-138.89 0,0 -79.13,46.82 -159.65,87.22 -239.55,130.45 -77.04,41.71 -154.26,82.3 -231.13,125.17 -79.71,44.48 -159.05,97.78 -238.56,134.92 -78.04,36.46 -137.95,126.75 -220.92,138.2 -547.59,75.18 299.98,348.11 486.64,386.55 35.62,7.32 74.57,-2.52 117.23,-17.11 209.09,-71.49 418.08,-142.51 627.32,-214.92 21.99,-7.61 45.92,-21.32 67.99,-35.38 124.66,-79.47 252.32,-128.97 376.52,-185.33 141.04,-63.97 270.6,-158.63 406.03,-234.61 15.35,-8.61 41.57,-28.96 31.23,-39.41 -17.06,-17.22 5.18,-27.95 21.66,-43.21 124.43,-115.2 261.89,-214.34 387.17,-328.9 122.81,-112.29 244.46,-224.64 351.98,-348.46 61.21,-70.5 95.55,-147.97 163.19,-216.81 39.49,-40.18 48.19,-68.91 21.56,-94.84 -29.11,-28.35 -42.93,-33.22 -94.34,9.27 -25.88,21.38 -50.01,45.08 -74.93,67.72 -864.75,175.68 -1502.25,467.05 -1959.1,766.71z" class="fil20"/></g></svg>