<svg xmlns="http://www.w3.org/2000/svg" xmlns:xlink="http://www.w3.org/1999/xlink" width="957.676" height="813.449" version="1.1" viewBox="0 0 24590.25 20886.87" xml:space="preserve" style="shape-rendering:geometricPrecision;text-rendering:geometricPrecision;image-rendering:optimizeQuality;fill-rule:evenodd;clip-rule:evenodd"><defs><style type="text/css">.fil14,.fil16{fill-rule:nonzero}.fil16{fill:url(#id18)}.fil14{fill:url(#id19)}.fil1{fill-rule:nonzero}.fil15{fill:url(#id20)}.fil15,.fil5{fill-rule:nonzero}.fil1{fill:url(#id21)}.fil5{fill:url(#id22)}.fil4{fill-rule:nonzero}.fil7{fill:url(#id23)}.fil7,.fil8{fill-rule:nonzero}.fil4{fill:url(#id24)}.fil8{fill:url(#id25)}.fil18,.fil19,.fil9{fill-rule:nonzero}.fil19,.fil9{fill:url(#id26)}.fil9{fill:url(#id27)}.fil18{fill:url(#id28)}.fil0{fill:url(#id29)}.fil0,.fil3,.fil6{fill-rule:nonzero}.fil6{fill:url(#id30)}.fil3{fill:url(#id31)}.fil10,.fil17,.fil2{fill-rule:nonzero}.fil2{fill:url(#id32)}.fil17{fill:url(#id33)}.fil10{fill:url(#id34)}.fil11{fill-rule:nonzero}.fil12{fill:url(#id35)}.fil12,.fil13{fill-rule:nonzero}.fil11{fill:url(#id36)}.fil13{fill:url(#id37)}</style><mask id="id0"><linearGradient id="id1" x1="10822.14" x2="10963.45" y1="2036.24" y2="528.61" gradientUnits="userSpaceOnUse"><stop offset="0" style="stop-opacity:1;stop-color:white"/><stop offset="1" style="stop-opacity:0;stop-color:white"/></linearGradient><rect style="fill:url(#id1)" width="1353.22" height="3710.56" x="10178.61" y="309.64"/></mask><mask id="id2"><linearGradient id="id3" x1="22157.17" x2="24046.32" y1="9107.86" y2="8987.23" gradientUnits="userSpaceOnUse"><stop offset="0" style="stop-opacity:1;stop-color:white"/><stop offset="1" style="stop-opacity:0;stop-color:white"/></linearGradient><rect style="fill:url(#id3)" width="5305.38" height="1367.98" x="19288.57" y="8645.36"/></mask><mask id="id4"><linearGradient id="id5" x1="15398.68" x2="16380.32" y1="2558.54" y2="707.03" gradientUnits="userSpaceOnUse"><stop offset="0" style="stop-opacity:1;stop-color:white"/><stop offset="1" style="stop-opacity:0;stop-color:white"/></linearGradient><rect style="fill:url(#id5)" width="2410.57" height="5125.7" x="14194.06" y="-3.7"/></mask><mask id="id6"><linearGradient id="id7" x1="19315.32" x2="21546.6" y1="5003.84" y2="3438.62" gradientUnits="userSpaceOnUse"><stop offset="0" style="stop-opacity:1;stop-color:white"/><stop offset="1" style="stop-opacity:0;stop-color:white"/></linearGradient><rect style="fill:url(#id7)" width="4746.41" height="3565.91" x="16613.37" y="3400.79"/></mask><mask id="id8"><linearGradient id="id9" x1="15342.5" x2="16562.2" y1="18461.92" y2="20469.06" gradientUnits="userSpaceOnUse"><stop offset="0" style="stop-opacity:1;stop-color:white"/><stop offset="1" style="stop-opacity:0;stop-color:white"/></linearGradient><rect style="fill:url(#id9)" width="2654.02" height="4856.21" x="14016.14" y="16034.35"/></mask><mask id="id10"><linearGradient id="id11" x1="17759.72" x2="19009.2" y1="18258.85" y2="19065.63" gradientUnits="userSpaceOnUse"><stop offset="0" style="stop-opacity:1;stop-color:white"/><stop offset="1" style="stop-opacity:0;stop-color:white"/></linearGradient><rect style="fill:url(#id11)" width="4383.57" height="3572.79" x="15240.7" y="15755.29"/></mask><mask id="id12"><linearGradient id="id13" x1="1544.11" x2="388.89" y1="15058.89" y2="15727.87" gradientUnits="userSpaceOnUse"><stop offset="0" style="stop-opacity:1;stop-color:white"/><stop offset="1" style="stop-opacity:0;stop-color:white"/></linearGradient><rect style="fill:url(#id13)" width="3097.57" height="1604.37" x="-3.7" y="14257.06"/></mask><mask id="id14"><linearGradient id="id15" x1="2106.29" x2="726.22" y1="12360.95" y2="12500.69" gradientUnits="userSpaceOnUse"><stop offset="0" style="stop-opacity:1;stop-color:white"/><stop offset="1" style="stop-opacity:0;stop-color:white"/></linearGradient><rect style="fill:url(#id15)" width="4569.28" height="1232.65" x="322.56" y="11717.77"/></mask><mask id="id16"><linearGradient id="id17" x1="4508.63" x2="2970.03" y1="16132.03" y2="17123.67" gradientUnits="userSpaceOnUse"><stop offset="0" style="stop-opacity:1;stop-color:white"/><stop offset="1" style="stop-opacity:0;stop-color:white"/></linearGradient><rect style="fill:url(#id17)" width="4074.37" height="2235.4" x="2471.87" y="15014.83"/></mask><linearGradient id="id18" x1="9492.68" x2="8535.65" y1="19016.73" y2="19634.91" gradientUnits="userSpaceOnUse"><stop offset="0" style="stop-opacity:1;stop-color:#99d5fe"/><stop offset="1" style="stop-opacity:1;stop-color:#4a4ffb"/></linearGradient><linearGradient id="id19" x1="16560.95" x2="18396.92" y1="16670.16" y2="19406.14" gradientUnits="userSpaceOnUse" xlink:href="#id18"/><linearGradient id="id20" x1="19740" x2="20810.07" y1="17518.84" y2="17911.24" gradientUnits="userSpaceOnUse" xlink:href="#id18"/><linearGradient id="id21" x1="10760.83" x2="10947.85" y1="3028.63" y2="1110.21" gradientUnits="userSpaceOnUse" xlink:href="#id18"/><linearGradient id="id22" x1="16470.11" x2="17129.2" y1="5244.73" y2="3351.03" gradientUnits="userSpaceOnUse" xlink:href="#id18"/><linearGradient id="id23" x1="9063.73" x2="7782.45" y1="4645.49" y2="2718.43" gradientUnits="userSpaceOnUse" xlink:href="#id18"/><linearGradient id="id24" x1="17742.16" x2="20419.02" y1="5556.78" y2="4554.02" gradientUnits="userSpaceOnUse" xlink:href="#id18"/><linearGradient id="id25" x1="12540.04" x2="12974.75" y1="3874.77" y2="2060.3" gradientUnits="userSpaceOnUse" xlink:href="#id18"/><linearGradient id="id26" x1="5637.55" x2="3636.94" y1="15559.68" y2="16248.66" gradientUnits="userSpaceOnUse" xlink:href="#id18"/><linearGradient id="id27" x1="19483.27" x2="22232.98" y1="7618.98" y2="6998.13" gradientUnits="userSpaceOnUse" xlink:href="#id18"/><linearGradient id="id28" x1="3444.02" x2="1342.01" y1="12690.53" y2="11979.2" gradientUnits="userSpaceOnUse" xlink:href="#id18"/><linearGradient id="id29" x1="5907.84" x2="4573.17" y1="4522.87" y2="3140.91" gradientUnits="userSpaceOnUse" xlink:href="#id18"/><linearGradient id="id30" x1="6379.74" x2="3022.3" y1="7036.14" y2="5748.98" gradientUnits="userSpaceOnUse" xlink:href="#id18"/><linearGradient id="id31" x1="15206.39" x2="15745.83" y1="3810.71" y2="1078.53" gradientUnits="userSpaceOnUse" xlink:href="#id18"/><linearGradient id="id32" x1="20782.72" x2="23504.75" y1="9528.66" y2="9065.21" gradientUnits="userSpaceOnUse" xlink:href="#id18"/><linearGradient id="id33" x1="2269.28" x2="639.11" y1="15084.01" y2="15163.26" gradientUnits="userSpaceOnUse" xlink:href="#id18"/><linearGradient id="id34" x1="18743.7" x2="21493.42" y1="11298.93" y2="11919.78" gradientUnits="userSpaceOnUse" xlink:href="#id18"/><linearGradient id="id35" x1="7586.46" x2="6528.85" y1="17201.74" y2="18767.09" gradientUnits="userSpaceOnUse" xlink:href="#id18"/><linearGradient id="id36" x1="12537.48" x2="12757.74" y1="16947.22" y2="19757.41" gradientUnits="userSpaceOnUse" xlink:href="#id18"/><linearGradient id="id37" x1="14790.03" x2="15755.35" y1="17346.79" y2="20006.06" gradientUnits="userSpaceOnUse" xlink:href="#id18"/></defs><g id="Layer_x0020_1"><metadata id="CorelCorpID_0Corel-Layer"/><path d="M5351.55 3280.59c-202.4,-155.11 194.38,166.16 0,0 -65.54,-56.03 -127.11,-117.38 -190.43,-176.38 -61.08,-56.89 -121.43,-114.61 -183.24,-170.6 -64.11,-58.03 -134.28,-110.37 -193.15,-172.63 -57.79,-61.11 -145.97,-70.44 -188.2,-151.86 -4.4,-8.48 -111.54,-61.39 -126.02,-68.97 -3.32,3.17 -6.66,6.32 -10,9.49 50.31,30.66 -237.61,-173.11 -246.2,-147.01 -7.27,22.08 17.8,580.81 136.27,1107.73 9.54,42.35 32.51,77.89 60.34,114.5 136.42,179.51 272.48,359.2 409.62,538.31 14.42,18.83 33.91,36.03 52.89,51.05 107.24,84.8 194.65,190.86 285.45,289.12 103.1,111.58 223.03,192.44 332.27,290.82 12.38,11.14 37.49,26.78 40.58,9.47 5.08,-28.54 21.78,-11.34 39.29,-3 132.27,63 258.61,149.57 390.77,213.86 129.57,63.02 258.67,124.79 390.03,164.59 74.78,22.66 143.38,12.48 219.65,42.97 44.53,17.82 68.31,9.75 75.56,-34.24 7.93,-48.08 5.67,-65.75 -45.4,-94.85 -25.69,-14.65 -52.3,-26.08 -78.48,-38.94 -479.87,-814.78 -772.69,-1467.75 -1171.61,-1773.42l0 -0.01z" class="fil0"/><path style="mask:url(#id0)" d="M10260.85 1692.71c95.41,-244.46 -78.32,248.69 0,0 26.41,-83.84 44.48,-169.69 66.23,-254.63 20.99,-81.93 40.57,-164.11 63.05,-245.73 23.32,-84.63 57.52,-168.23 72.02,-253.2 14.25,-83.4 100.84,-142.79 82.82,-233.49 -1.88,-9.44 71.21,-115.23 80.75,-129.88 5.99,0.62 11.99,1.21 17.96,1.8 -29.81,54.39 118.96,-279.74 148.29,-263.67 24.8,13.58 430.17,480.28 711.58,976.19 22.6,39.87 25.64,82.11 24.32,128.09 -6.35,225.42 -12.17,450.76 -19.57,676.26 -0.78,23.7 -8.21,49.09 -16.8,72.4 -48.53,131.63 -59.52,268.83 -80.15,401.7 -23.41,150.86 -88.5,286.78 -128.64,430.59 -4.55,16.29 -19.17,43.71 -35.84,31.52 -27.47,-20.12 -31.95,3.64 -44.13,20.67 -92.02,128.72 -159.51,273.03 -250.39,402.74 -89.1,127.15 -178.72,253.02 -287.71,362.44 -62.05,62.28 -142.9,94.4 -200.47,163.9 -33.6,40.58 -65.14,48.05 -106.88,16.71 -45.62,-34.23 -56.87,-49.86 -25.05,-103.41 16,-26.97 35.49,-51.83 53.39,-77.65 -119.45,-941.21 -312.82,-1641.57 -124.75,-2123.38l-0.03 0.03z" class="fil1"/><path style="mask:url(#id2)" d="M22493.91 8658.19c372.03,26.67 -372.49,-9.05 0,0 125.57,3.05 251.27,-2.48 376.9,-4.22 121.14,-1.66 242.21,-4.76 363.44,-4.9 125.7,-0.13 253.42,10.51 376.76,1.77 121.07,-8.58 231.76,59.14 352.68,17.45 12.6,-4.35 183.79,37.89 207.29,43.2 1.06,5.93 2.14,11.9 3.23,17.83 -85.52,-14.23 428.86,39.97 415.79,72.6 -11.01,27.58 -533.05,543.93 -1135.55,948.38 -48.45,32.49 -106.49,46.74 -171.12,57.78 -316.88,54.22 -633.52,108.92 -950.88,162.14 -33.35,5.58 -71.19,5.2 -106.5,3.14 -199.43,-11.62 -394.58,14.49 -586.77,30.14 -218.24,17.79 -428.95,-8.67 -642.67,-8.95 -24.21,-0.04 -67.2,-6.81 -55.5,-26.17 19.29,-31.91 -15.31,-29.87 -43.02,-37.06 -209.28,-54.39 -432.47,-80.93 -642.78,-133.96 -206.16,-52 -410.67,-104.84 -598.43,-180.79 -106.9,-43.23 -177.64,-112.74 -293.18,-149.7 -67.46,-21.58 -87.98,-50.02 -57.59,-98.74 33.19,-53.21 51.41,-68.25 136.42,-51.86 42.79,8.23 83.76,20.39 125.55,30.77 1276.42,-367.3 2192.73,-741.49 2925.99,-688.86l-0.04 0.02z" class="fil2"/><path style="mask:url(#id4)" d="M14969.85 1874.62c203.97,-332.09 -185.23,339.4 0,0 62.44,-114.42 115.74,-232.3 173.06,-348.65 55.3,-112.2 109.01,-224.87 165.98,-336.53 59.09,-115.79 130.7,-229.21 179.42,-346.19 47.81,-114.83 172.75,-190.25 184.93,-317.88 1.25,-13.28 127.32,-154.38 144.1,-173.95 6.88,1.35 13.78,2.67 20.67,3.99 -55.59,73.15 245.04,-379.21 273.93,-354.43 24.45,20.94 333.36,703.41 484.11,1416.24 12.09,57.31 0.05,116.32 -18.54,180.15 -91.06,312.96 -181.47,625.86 -273.82,938.86 -9.7,32.89 -27.93,67.57 -46.79,99.29 -106.46,179.07 -170.34,368.94 -244.08,552.02 -83.71,207.88 -211.45,391.53 -312.43,588.2 -11.45,22.29 -38.97,59.21 -54.28,40.88 -25.19,-30.23 -39.31,2.41 -60.11,25.11 -157.06,171.42 -290.73,366.54 -446.83,539.43 -153.01,169.48 -306.16,337.13 -476.24,480.3 -96.83,81.52 -204.85,119.49 -299.02,211.41 -54.98,53.69 -95.22,61.45 -133.23,14.43 -41.54,-51.37 -49.13,-74.02 8.55,-145.89 29.02,-36.17 61.39,-69.15 92.22,-103.57 206.72,-1318.77 236.35,-2308.7 638.39,-2963.21l-0.01 -0.01z" class="fil3"/><path style="mask:url(#id6)" d="M19682.06 5628.72c289.31,-261.12 -299.91,244.04 0,0 101.11,-82.27 207.3,-156.18 311.24,-233.76 100.22,-74.84 201.21,-148.22 300.6,-224.6 103.06,-79.23 201.52,-170.32 307.64,-239.56 104.17,-67.96 155.56,-204.57 278.82,-239.82 12.84,-3.66 128.57,-153.33 144.76,-173.41 -2.58,-6.52 -5.14,-13.07 -7.7,-19.61 -61.79,68.01 328.15,-310.09 298.52,-333.99 -25.05,-20.22 274.23,-741.29 -454.14,-759.47 -58.56,-1.44 -1141.02,563.03 -1200.4,592.95 -291.09,146.62 -582.25,292.6 -873.15,440.5 -30.57,15.54 -61.34,39.82 -89.09,64.11 -156.64,137.35 -331.68,234.8 -498.22,340.7 -189.12,120.24 -346.39,279.32 -521.34,414.5 -19.82,15.33 -51.1,49.13 -30.28,60.82 34.32,19.27 4.79,39.1 -13.71,63.69 -139.91,185.69 -307.35,352.73 -448.87,537.75 -138.72,181.36 -275.61,362.53 -385.36,555.87 -62.48,110.07 -80.11,223.21 -153.3,332.57 -42.74,63.85 -43.05,104.84 10.12,133.62 58.08,31.47 81.73,34.8 141.87,-35.01 30.28,-35.12 56.79,-72.97 85.01,-109.57 1258.93,-443.84 2226.83,-653.58 2797.02,-1168.28l-0.04 0z" class="fil4"/><path d="M16516.91 3841.01c238.43,-195.55 -224.61,203.08 0,0 75.72,-68.46 144.66,-140.54 216.58,-211.02 69.37,-67.95 137.55,-136.46 208.18,-203.82 73.26,-69.84 156.29,-136.37 221.28,-208.47 63.79,-70.78 182.54,-104.24 219.77,-188.6 3.87,-8.78 137.55,-86.37 155.51,-97.24 5.38,1.86 10.75,3.73 16.15,5.57 -61.29,41.58 282.24,-221.6 300.7,-200.88 15.62,17.53 123.88,520.81 95.71,1022.52 -2.29,40.32 -24.78,78.44 -53.67,118.91 -141.57,198.36 -282.61,396.79 -425.27,594.99 -14.99,20.83 -37.38,41.67 -59.63,60.44 -125.68,105.93 -218.68,225.08 -318.33,338.27 -113.14,128.53 -257.26,234.59 -382.21,353.14 -14.16,13.43 -44.66,34.49 -53.32,20 -14.27,-23.9 -32.82,-3.84 -54.75,8.56 -165.63,93.72 -317.09,206.69 -482.25,301.54 -161.89,92.98 -323.51,184.69 -493.81,257.56 -96.96,41.49 -193.81,52.06 -290.81,100.92 -56.62,28.54 -91.35,28.17 -112.56,-8.83 -23.17,-40.43 -24.57,-56.75 38.15,-97.19 31.54,-20.35 65.19,-38.08 97.87,-57 451.18,-860.56 686.69,-1524.01 1156.69,-1909.4l0.02 0z" class="fil5"/><path d="M4297.89 5795.4c-448.67,-145.55 448.72,158.1 0,0 -151.28,-53.3 -302.46,-112.65 -453.66,-169.32 -145.81,-54.65 -291.5,-110.25 -437.45,-163.87 -151.35,-55.58 -305.42,-104.52 -453.66,-165.08 -145.51,-59.44 -280.68,-60.94 -425.1,-143.46 -15.03,-8.6 -222.32,-54.61 -250.78,-61.28 -1.44,3.69 -2.91,7.38 -4.4,11.03 103.35,27.79 -517.44,-161.33 -502.62,-132.75 12.51,24.15 626.69,615.8 1340.86,1164.71 57.43,44.11 126.92,79.7 204.43,115.96 380.04,177.82 759.74,355.85 1140.38,533.17 39.99,18.62 85.55,35.06 128.13,49.21 240.43,79.91 474.68,184.32 705.65,280.11 262.26,108.78 516.7,183.28 774.04,277.44 29.16,10.67 81.09,24.9 67.54,6.2 -22.32,-30.83 19.26,-14.13 52.82,-6.93 253.5,54.33 522.95,134.3 777.65,190.03 249.65,54.63 497.37,107.95 725.53,137.7 129.9,16.94 217.03,-0.44 357.14,24.7 81.83,14.68 107.34,3.84 72.09,-43.64 -38.5,-51.88 -60,-70.44 -162.82,-96.5 -51.75,-13.13 -101.41,-22.73 -152.02,-33.91 -1526.61,-820.4 -2619.45,-1486.62 -3503.75,-1773.5l0.02 -0.01z" class="fil6"/><path d="M8430.5 3218.09c-180.82,-243.78 176.18,250.38 0,0 -59.39,-84.4 -116.48,-171.95 -174.56,-258.11 -56.03,-83.08 -111.62,-166.6 -168.11,-249.19 -58.58,-85.63 -121.06,-168.8 -176.15,-255.88 -54.08,-85.49 -124.37,-136.72 -169.25,-233.9 -4.67,-10.12 -96.13,-111.62 -108.55,-125.74 -2.14,1.4 -4.29,2.78 -6.43,4.14 43.8,53.15 -210.98,-277.73 -213.88,-257.21 -2.46,17.32 98.58,556.72 267.99,1111.03 13.63,44.56 36.77,89.16 63.87,137.1 132.81,235.08 265.36,470.14 398.67,705.17 14,24.7 31.75,50.34 48.79,73.63 96.19,131.63 179.98,273.81 265.28,410.24 96.85,154.93 202.4,288.96 302.13,434.38 11.31,16.47 33.21,43.32 33.1,28.45 -0.2,-24.49 15.36,-0.21 30.28,16.08 112.57,123.11 223.95,265.61 336.65,389.91 110.46,121.83 220.4,242.26 328.87,343.03 61.76,57.38 113.91,80.79 177.98,146.28 37.4,38.24 54.8,42.08 54.06,4.04 -0.8,-41.57 -5.14,-59.32 -49.31,-111.37 -22.22,-26.19 -44.67,-49.78 -67.02,-74.52 -493.89,-999.9 -817.96,-1757.08 -1174.36,-2237.57l-0.03 0.02z" class="fil7"/><path d="M13039.14 2719.43c44.28,-240.75 -50.75,241.64 0,0 17.1,-81.46 37.32,-163.29 56.18,-244.95 18.17,-78.74 36.86,-157.49 54.47,-236.21 18.29,-81.66 32.96,-164.25 54.01,-244.66 20.66,-78.93 12.21,-148.57 44.83,-228.5 3.4,-8.32 12.93,-118.1 14.43,-133.2 -2,-0.49 -3.99,-1 -5.99,-1.49 -7.25,55.06 47.72,-277.21 34.03,-267.65 -11.58,8.08 -274.09,364.4 -507.81,769.25 -18.78,32.54 -32.35,70.72 -45.73,113.09 -65.57,207.64 -131.28,415.13 -196.56,623.04 -6.86,21.85 -12.21,46.43 -16.6,69.28 -24.73,129.15 -62.47,256.77 -96,382.13 -38.08,142.35 -59.06,278.32 -89.96,417.14 -3.49,15.73 -7.28,43.41 1.41,35.18 14.34,-13.6 8.58,8.95 7.18,26.71 -10.67,134.12 -33.44,278.19 -44.76,413.03 -11.08,132.16 -21.62,263.25 -21.38,382.67 0.15,67.99 15.03,111.62 11.65,185.43 -1.97,43.1 5.35,55.48 27.37,34.12 24.08,-23.34 32.16,-35.68 38.56,-90.35 3.22,-27.51 4.76,-53.72 7.07,-80.52 317.99,-841.35 586.25,-1449 673.55,-1923.52l0.04 -0.02z" class="fil8"/><path d="M21383.09 7518.48c356.04,-101.09 -361.55,92.95 0,0 121.88,-31.34 246.34,-58.67 369.66,-87.79 118.92,-28.08 238.16,-55.45 356.71,-84.26 122.93,-29.88 244.73,-65.27 367.82,-90.54 120.82,-24.81 209.56,-82.88 339.77,-92.16 13.56,-0.96 168.76,-61.5 190.23,-69.6 -0.68,-3.03 -1.32,-6.08 -1.96,-9.1 -79.5,27.02 407.77,-120.85 385.62,-133.01 -18.7,-10.28 -677.47,-127.67 -1382.74,-173.51 -56.7,-3.67 -117.53,3.48 -183.9,13.7 -325.38,50.1 -650.65,99.91 -976.2,150.57 -34.22,5.32 -71.1,14.52 -105.02,23.88 -191.63,52.95 -389.91,87.19 -582.3,125.64 -218.47,43.65 -416.85,106.22 -625.72,157.24 -23.66,5.78 -63.73,19.21 -46.74,25.47 28.02,10.35 -6.39,17.62 -31.4,27.6 -188.97,75.3 -399.53,140.87 -589.89,215.79 -186.6,73.44 -371.36,146.88 -533.08,227.15 -92.07,45.7 -141.27,95.07 -243.59,139.91 -59.75,26.17 -71.63,44.37 -27.92,59.94 47.75,17 69.87,19.7 148.29,-8.21 39.47,-14.05 76.04,-29.51 113.89,-44.31 1353.42,-132.03 2356.79,-175.1 3058.5,-374.36l-0.01 -0.05z" class="fil9"/><path d="M20643.83 11401.38c356.04,101.09 -361.55,-92.95 0,0 121.88,31.34 246.34,58.67 369.66,87.79 118.92,28.08 238.16,55.45 356.71,84.26 122.93,29.88 244.73,65.26 367.82,90.53 120.82,24.81 209.56,82.88 339.77,92.16 13.56,0.96 168.76,61.5 190.23,69.6 -0.68,3.03 -1.32,6.08 -1.96,9.1 -79.5,-27.02 407.77,120.85 385.62,133.01 -18.7,10.28 -677.47,127.67 -1382.74,173.51 -56.7,3.67 -117.53,-3.48 -183.9,-13.7 -325.38,-50.1 -650.65,-99.91 -976.2,-150.57 -34.22,-5.32 -71.1,-14.52 -105.02,-23.88 -191.63,-52.95 -389.91,-87.19 -582.3,-125.64 -218.47,-43.65 -416.85,-106.22 -625.72,-157.24 -23.66,-5.78 -63.73,-19.21 -46.74,-25.47 28.02,-10.35 -6.39,-17.62 -31.4,-27.6 -188.97,-75.29 -399.53,-140.86 -589.89,-215.78 -186.6,-73.44 -371.36,-146.88 -533.08,-227.15 -92.07,-45.7 -141.27,-95.07 -243.59,-139.91 -59.75,-26.17 -71.63,-44.37 -27.92,-59.94 47.75,-17 69.87,-19.7 148.29,8.21 39.47,14.05 76.04,29.51 113.89,44.31 1353.42,132.03 2356.79,175.1 3058.5,374.36l-0.01 0.05z" class="fil10"/><path d="M12950.54 18794.55c4.16,370.08 -12.31,-373.03 0,0 4.14,125.76 12.25,252.86 18.59,379.35 6.12,122 12.89,244.08 18.31,365.92 5.62,126.34 6.38,253.18 15.86,378.36 9.3,122.88 -16.96,224.52 7.55,351.94 2.56,13.27 -9.31,179.29 -10.7,202.17 -2.69,0.22 -5.38,0.48 -8.07,0.74 2.78,-83.92 0.56,425.28 -15.03,407.54 -13.17,-14.99 -273.78,-612.78 -486.48,-1275.59 -17.08,-53.3 -26.19,-113.65 -34.14,-180.17 -38.94,-326.14 -78.1,-652.08 -116.61,-978.54 -4.05,-34.32 -5.55,-72.28 -6.16,-107.48 -3.47,-198.76 -24.11,-398.57 -39.8,-593.93 -17.84,-221.84 -14.97,-429.83 -24.29,-644.57 -1.06,-24.32 0.16,-66.55 9.58,-52.07 15.53,23.9 13.07,-11.16 15.15,-37.97 15.77,-202.6 18.12,-423.12 33.22,-626.95 14.8,-199.8 30.07,-397.84 56.71,-575.76 15.17,-101.29 44.01,-162.54 55.92,-273.39 6.93,-64.73 19.12,-81.33 42.87,-43.87 25.95,40.91 33.68,61.34 29.9,144.45 -1.88,41.83 -5.67,81.29 -8.6,121.81 225.38,1334.77 438.01,2308.62 446.21,3038.01l0.02 0z" class="fil11"/><path d="M7034.69 18345.31c-151.49,196.25 148.45,-201.17 0,0 -50.04,67.83 -98.56,138 -147.75,207.11 -47.45,66.66 -94.58,133.65 -142.33,199.94 -49.52,68.74 -101.79,135.72 -148.8,205.45 -46.14,68.45 -102.15,110.96 -142.17,188.12 -4.17,8.04 -79.36,90.37 -89.6,101.82 -1.49,-1 -3.03,-1.97 -4.55,-2.96 36.31,-42.95 -176.31,223.76 -177.14,207.95 -0.7,-13.34 110.58,-435.78 274.03,-872.46 13.16,-35.12 33.42,-70.61 56.87,-108.88 114.97,-187.59 229.74,-375.17 345.08,-562.76 12.12,-19.71 27.11,-40.29 41.39,-59.04 80.73,-105.92 152.85,-219.5 225.73,-328.72 82.75,-123.99 170.63,-232.13 254.9,-348.87 9.54,-13.22 27.73,-34.91 26.67,-23.38 -1.77,19.01 11.49,-0.44 23.73,-13.68 92.42,-99.94 185.24,-214.86 277.83,-315.73 90.75,-98.85 181.02,-196.62 268.91,-279.07 50.04,-46.93 90.62,-67.17 142.92,-120.46 30.53,-31.14 43.83,-34.8 40.75,-5.26 -3.35,32.27 -7.77,46.22 -44.27,88.34 -18.38,21.2 -36.74,40.38 -55.1,60.45 -435.84,795.16 -728.49,1395.33 -1027.09,1782.09l0.01 0.01z" class="fil12"/><path style="mask:url(#id8)" d="M15975.42 18916.1c120.72,349.92 -136.59,-347.94 0,0 46.05,117.29 99.78,233.53 150.13,350.24 48.52,112.54 98.29,224.8 145.5,337.62 48.93,117 89.06,237.32 144.73,350.91 54.67,111.51 37.32,223.81 121.43,330.66 8.75,11.12 37.61,176.25 42.02,198.85 -4.88,1.8 -9.75,3.64 -14.62,5.46 -20.53,-81.54 130.93,404.63 96.82,396.93 -28.84,-6.48 -691.48,-421.74 -1285.69,-927.2 -47.76,-40.65 -82.99,-92.72 -117.93,-151.39 -171.34,-287.54 -343.03,-574.77 -513.68,-862.89 -17.94,-30.28 -32.28,-65.55 -44.17,-98.7 -67.1,-187.22 -166.14,-365.27 -254.72,-542.04 -100.59,-200.7 -158.86,-400.43 -241.61,-599.41 -9.37,-22.55 -20.03,-63.48 1.77,-55.24 35.91,13.6 20.65,-18.32 16.31,-45.11 -32.83,-202.25 -95.87,-413.61 -130.3,-616.63 -33.75,-198.99 -66.11,-396.6 -71.39,-581.75 -3,-105.41 31.42,-180.79 19.48,-293.37 -6.99,-65.74 10.39,-88.74 65.57,-67.11 60.28,23.62 80.75,38.5 99.17,119.89 9.28,40.93 14.36,80.75 21.36,121.07 822.84,1137.83 1511.96,1939.5 1749.85,2629.2l-0.05 -0.01z" class="fil13"/><path style="mask:url(#id10)" d="M18340.21 17670.71c224.99,294.07 -245.69,-282.91 0,0 82.83,95.37 175.65,185.24 264.05,277.52 85.24,89.01 172.06,177.02 255.59,267.08 86.6,93.4 162.12,195.3 257.06,281.31 93.17,84.44 91.01,210.93 222.34,273.65 13.68,6.53 82.57,161.4 92.59,182.34 -6.13,4.66 -12.26,9.35 -18.38,14.03 -42.34,-72.87 248.69,345.01 202.01,356.57 -39.47,9.81 -995.34,-41.57 -1877.23,-225.77 -70.87,-14.83 -127.25,-48.71 -184.49,-89.56 -280.59,-200.29 -561.55,-400.09 -841.33,-601.38 -29.4,-21.15 -54.97,-49.54 -76.88,-77.14 -123.72,-155.89 -288.09,-283.96 -438.36,-416.7 -170.64,-150.68 -284.94,-324.65 -431.61,-483.78 -16.6,-18.03 -38.32,-54.41 -7.92,-58.35 50.16,-6.47 24,-30.87 13.28,-56.17 -81.04,-191.12 -203.86,-374.41 -287.17,-565.41 -81.66,-187.23 -161.22,-373.8 -202.55,-562.97 -23.53,-107.7 8.14,-205.66 -28.56,-315.69 -21.45,-64.25 -2.67,-98.09 74.5,-107.24 84.34,-10.02 114.24,-6.29 153.77,67.62 19.9,37.21 34.03,75.59 50.77,113.44 1302.36,709.62 2365.04,1146.93 2808.45,1726.55l0.05 0.05z" class="fil14"/><path d="M20533.21 17578.68c109.87,134.54 -114.1,-127.24 0,0 38.47,42.9 78.98,82.22 118.57,123.11 38.18,39.44 76.68,78.26 114.52,118.37 39.24,41.58 76.62,88.4 117.14,125.58 39.76,36.5 58.56,101.75 105.97,124.23 4.93,2.34 48.52,76.89 54.63,86.92 -1.06,2.86 -2.1,5.73 -3.13,8.6 -23.38,-34.34 124.49,158.97 112.84,168.42 -9.86,7.99 -292.81,52.88 -574.86,23.9 -22.67,-2.35 -44.09,-15.57 -66.83,-32.34 -111.48,-82.13 -222.98,-163.97 -334.37,-246.67 -11.7,-8.7 -23.41,-21.4 -33.96,-33.97 -59.52,-70.98 -126.46,-124.63 -190.08,-181.71 -72.22,-64.82 -131.81,-145.79 -198.42,-216.73 -7.55,-8.04 -19.38,-25.14 -11.23,-29.43 13.43,-7.07 2.16,-17.68 -4.81,-29.9 -52.63,-92.3 -116.11,-177.45 -169.4,-269.52 -52.22,-90.24 -103.74,-180.32 -144.66,-274.58 -23.29,-53.67 -29.19,-106.43 -56.65,-160.32 -16.03,-31.45 -15.82,-50.26 4.99,-60.74 22.74,-11.45 31.92,-11.77 54.63,23.32 11.44,17.65 21.4,36.35 32.02,54.58 483.65,267.98 856.55,413.71 1073.08,678.87l0.02 0.03z" class="fil15"/><path d="M8731.32 19239.48c-78.41,154.98 84.11,-148.77 0,0 -28.37,50.16 -59.47,97.24 -89.36,145.7 -28.82,46.73 -58.08,92.89 -86.44,140.19 -29.4,49.08 -55.86,102.8 -87.43,147.81 -31,44.19 -35.33,111.95 -76.82,144.08 -4.32,3.35 -30.87,85.52 -34.68,96.62 1.64,2.57 3.27,5.14 4.9,7.72 15.45,-38.56 -87.45,181.99 -74.04,188.72 11.34,5.67 297.33,-11.25 566.56,-100.11 21.64,-7.16 39.73,-24.67 58.33,-45.92 91.23,-104.15 182.55,-208.03 273.59,-312.72 9.57,-11.01 18.29,-25.92 25.87,-40.47 42.88,-82.11 96.76,-148.89 146.62,-218.3 56.62,-78.82 97.42,-170.71 147.25,-254.29 5.64,-9.47 13.53,-28.73 4.65,-31.16 -14.64,-4.03 -5.92,-16.8 -1.74,-30.23 31.6,-101.45 75.3,-198.25 107.55,-299.61 31.63,-99.36 62.6,-198.38 82.32,-299.22 11.23,-57.41 5.67,-110.23 20.9,-168.75 8.9,-34.17 4.65,-52.49 -17.92,-58.26 -24.66,-6.3 -33.69,-4.64 -48.35,34.51 -7.38,19.7 -13.08,40.12 -19.55,60.19 -414.82,365.58 -747.71,588 -902.23,893.5l0.04 0.01z" class="fil16"/><path style="mask:url(#id12)" d="M1170.65 14813.31c-207.55,136.12 210.2,-124.37 0,0 -70.86,41.92 -142.96,78.1 -214.5,116.82 -69,37.34 -138.14,73.69 -206.95,112.07 -71.37,39.83 -142.44,87.55 -213.62,120.82 -69.88,32.63 -123.53,113.5 -197.82,123.74 -7.73,1.06 -99.18,83.94 -111.81,94.98 0.2,4.35 0.39,8.71 0.59,13.07 46.6,-36.77 -238,163.15 -226.17,181.01 10,15.12 376.32,197.94 773.14,279.68 31.91,6.55 66.79,-2.26 104.98,-15.33 187.22,-64.01 374.38,-127.62 561.73,-192.45 19.68,-6.81 41.12,-19.09 60.88,-31.69 111.62,-71.15 225.93,-115.49 337.14,-165.96 126.29,-57.28 242.32,-142.03 363.58,-210.08 13.74,-7.72 37.22,-25.93 27.96,-35.3 -15.27,-15.42 4.64,-25.02 19.39,-38.69 111.42,-103.15 234.51,-191.93 346.7,-294.51 109.97,-100.55 218.9,-201.15 315.18,-312.03 54.8,-63.11 85.55,-132.49 146.11,-194.12 35.36,-35.98 43.17,-61.7 19.31,-84.93 -26.08,-25.38 -38.44,-29.75 -84.48,8.3 -23.17,19.15 -44.78,40.36 -67.1,60.64 -774.32,157.29 -1345.19,195.64 -1754.25,463.95l0.01 -0.01z" class="fil17"/><path style="mask:url(#id14)" d="M2201.66 11753.56c-333.06,62.11 330.21,-45.91 0,0 -111.32,15.47 -221.16,23.06 -331.65,34.13 -106.55,10.69 -212.77,20.06 -319.65,32.16 -110.87,12.57 -225.47,35.24 -332.64,39.64 -105.19,4.31 -215.34,77.88 -314.29,51.67 -10.31,-2.74 -169.1,53.45 -190.83,60.73 -2.03,5.58 -4.09,11.17 -6.14,16.75 78.05,-21.75 -385.64,80.11 -380.14,108.85 4.64,24.3 369.66,447.44 826.36,759.36 36.71,25.06 85.28,32.34 140.26,35.98 269.48,17.99 538.66,36.45 808.75,53.47 28.37,1.8 61.83,-2.38 93.35,-7.83 178.05,-30.83 345.34,-26.46 511.98,-31.42 189.2,-5.64 379.93,-51.27 568.5,-73.07 21.38,-2.47 60.53,-13.07 53.79,-29.72 -11.1,-27.45 19.03,-29.08 44.8,-38.5 194.64,-71.23 396.4,-118.19 591.7,-188.29 191.44,-68.71 381.61,-138.03 561.24,-226.95 102.27,-50.63 177.53,-121.79 286.25,-167.51 63.49,-26.69 86.85,-54.98 69.04,-96.78 -19.47,-45.67 -32.74,-57.71 -110.75,-34.03 -39.27,11.91 -77.66,27.25 -116.42,41.03 -1057.97,-209.69 -1797.04,-462.07 -2453.5,-339.61l-0.02 -0.06z" class="fil18"/><path style="mask:url(#id16)" d="M3864.49 16099.96c-289.57,189.92 293.27,-173.51 0,0 -98.85,58.49 -199.45,108.96 -299.26,162.97 -96.24,52.1 -192.72,102.81 -288.74,156.37 -99.58,55.57 -198.7,122.15 -298.03,168.55 -97.49,45.55 -172.34,158.35 -275.99,172.66 -684.09,93.92 374.76,434.89 607.95,482.91 44.5,9.14 93.16,-3.14 146.45,-21.38 261.21,-89.31 522.31,-178.03 783.7,-268.5 27.47,-9.51 57.36,-26.64 84.94,-44.2 155.74,-99.28 315.22,-161.12 470.39,-231.53 176.2,-79.92 338.05,-198.17 507.24,-293.09 19.18,-10.75 51.93,-36.18 39.01,-49.23 -21.31,-21.52 6.47,-34.92 27.06,-53.98 155.45,-143.92 327.17,-267.77 483.68,-410.89 153.42,-140.28 305.4,-280.64 439.72,-435.32 76.47,-88.07 119.37,-184.85 203.87,-270.86 49.34,-50.19 60.21,-86.09 26.93,-118.48 -36.36,-35.42 -53.63,-41.5 -117.85,11.58 -32.34,26.71 -62.48,56.32 -93.61,84.61 -1080.32,219.47 -1876.74,583.47 -2447.47,957.84l0.03 -0.03z" class="fil19"/></g></svg>