<svg xmlns="http://www.w3.org/2000/svg" xmlns:xlink="http://www.w3.org/1999/xlink" width="311.773" height="311.773" version="1.1" viewBox="0 0 27196.36 27196.36" xml:space="preserve" style="shape-rendering:geometricPrecision;text-rendering:geometricPrecision;image-rendering:optimizeQuality;fill-rule:evenodd;clip-rule:evenodd"><defs><style type="text/css">.fil0,.fil1{fill:#fff}.fil0{fill-opacity:.501961}</style></defs><g id="Layer_x0020_1"><metadata id="CorelCorpID_0Corel-Layer"/><path d="M6468.91 3982.83l3146.46 -0.03 3982.83 -3982.79 3982.79 3982.79 5632.61 0.03 0 5632.58 3982.76 3982.76 -3982.83 3982.79 0 4614.75 342.98 342.98 1322.1 0.03 0 1088.81 434.37 0 0 1839.69 -1839.72 0.03 0 -434.34 -1088.81 0 0 -1322.1 -497.28 -497.28 -4306.19 -0.03 -3982.79 3982.86 -3982.83 -3982.79 -5632.54 0 0 -5632.54 -3982.83 -3982.86 3982.83 -3982.83 0 -2673.52c-1888.22,-2842.38 -2385.76,-4382.84 -2038.06,-4731.95 335.46,-336.85 1833.16,91.03 4524.15,1772.96zm3348.83 2670.09c2709.25,3005.85 6703.16,7994.5 9908.8,7994.5l0 2286.09 173.02 -172.99c250.73,-250.76 462.79,-471.66 643.92,-668.02l0.03 -9439.58 -10725.78 0zm6288.14 13890.57c152.05,-145.16 318.09,-307.37 500.41,-489.69l172.99 -173.02 -2286.09 0c0,-3151.34 -4821.27,-7064.53 -7840.27,-9770.1l0.03 7975.38 2099.42 0 0 2457.43 7353.51 0z" class="fil0"/><path d="M18564.76 5513.36c4104.88,-3018.9 6270.47,-3834.96 6692.77,-3414.37 422.3,420.59 -357.22,2667.98 -3303.53,6803.61 -2629.8,2629.8 -9134.02,7317.87 -9134.02,10978.16l-2286.09 0 172.99 173.02c1792.77,1792.74 2062.49,1610.35 2709.52,2257.38l0 774.22 -3031.63 -0.03 0 -816.85 -2006.91 -2006.91 -3449.15 3449.15 -0.03 1322.1 -1088.81 0 0 434.37 -1839.69 0 -0.03 -1839.72 434.34 0 0 -1088.81 1322.1 0 3449.18 -3449.18 -2006.91 -2006.91 -816.85 0 0 -3031.59 774.22 0c647.02,647.02 264.58,716.69 2257.38,2709.52l173.02 172.99 0 -2286.09c3660.22,0 8348.36,-6504.29 10978.12,-9134.05z" class="fil1"/></g></svg>