<svg xmlns="http://www.w3.org/2000/svg" width="341.333" height="341.333" preserveAspectRatio="xMidYMid meet" version="1.0" viewBox="0 0 256 256"><metadata>Created by potrace 1.14, written by Peter Selinger 2001-2017</metadata><g fill="#000" stroke="none"><path d="M1245 2207 c-6 -7 -19 -31 -29 -54 -10 -23 -23 -40 -29 -36 -6 3 -7 1 -3 -5 5 -9 -56 -147 -104 -232 -8 -14 -15 -32 -16 -40 -2 -8 -8 -16 -14 -18 -5 -2 -8 -8 -5 -12 3 -5 -3 -18 -15 -30 -11 -11 -19 -23 -18 -28 1 -4 -15 -41 -35 -83 -33 -68 -42 -80 -86 -102 -27 -14 -51 -23 -55 -20 -3 4 -6 1 -6 -5 0 -7 -21 -22 -47 -34 -27 -12 -60 -30 -75 -40 -16 -11 -28 -16 -28 -12 0 4 -8 0 -17 -8 -31 -27 -156 -88 -166 -81 -6 3 -7 1 -3 -5 4 -7 1 -12 -6 -12 -26 -1 -84 -54 -80 -74 6 -28 20 -40 93 -76 35 -18 67 -38 71 -44 4 -6 8 -7 8 -3 0 5 13 0 29 -9 17 -10 27 -22 24 -27 -3 -6 -1 -7 4 -4 12 8 169 -72 166 -84 -2 -4 4 -6 12 -3 8 4 15 1 15 -5 0 -6 3 -10 8 -9 10 2 66 -25 74 -37 5 -6 8 -6 8 0 0 6 11 -8 24 -30 18 -29 21 -42 13 -47 -8 -5 -7 -8 4 -8 14 0 22 -15 29 -50 1 -3 8 -12 16 -22 9 -9 16 -22 18 -30 1 -8 12 -31 24 -51 12 -21 22 -42 22 -47 0 -4 15 -37 34 -73 19 -36 32 -68 29 -71 -4 -3 -1 -6 6 -6 8 0 11 -6 7 -17 -4 -10 -4 -14 0 -10 4 4 25 -28 46 -71 22 -42 45 -83 52 -90 19 -19 56 -23 63 -7 3 8 8 13 12 10 4 -2 8 1 8 8 0 19 65 147 72 143 3 -2 7 6 7 17 1 12 15 45 31 72 16 28 30 52 30 55 3 15 98 206 105 211 6 3 8 8 6 11 -6 9 37 83 57 98 34 25 67 40 76 34 5 -3 8 0 7 8 -2 7 3 12 10 11 6 -2 12 2 12 8 0 5 5 7 10 4 6 -3 10 -1 10 5 0 6 5 8 10 5 6 -3 10 -1 10 5 0 7 7 9 16 6 8 -3 13 -2 10 3 -3 4 7 14 22 21 33 16 32 16 60 25 12 4 22 10 22 14 0 4 20 15 45 26 25 11 45 24 45 28 0 5 4 6 9 3 5 -3 14 1 21 9 7 8 16 12 21 9 5 -3 9 0 9 5 0 6 5 11 12 11 22 0 78 51 78 71 0 26 -13 38 -75 69 -28 13 -52 27 -55 30 -3 3 -24 14 -47 24 -24 11 -43 23 -43 28 0 4 -3 7 -7 6 -8 -2 -64 23 -73 32 -3 3 -39 23 -80 44 -41 22 -77 43 -80 46 -3 4 -17 10 -31 13 -20 5 -36 24 -63 77 -21 38 -33 70 -29 70 4 0 3 4 -3 8 -19 12 -65 112 -58 125 4 7 3 9 -1 4 -8 -6 -83 129 -88 158 -1 6 -5 12 -8 15 -4 3 -22 37 -41 75 -51 103 -60 115 -88 115 -14 -1 -30 -6 -35 -13z" transform="translate(0.000000,256.000000) scale(0.100000,-0.100000)"/></g></svg>