<?xml version="1.0" standalone="no"?>
<!DOCTYPE svg PUBLIC "-//W3C//DTD SVG 20010904//EN"
 "http://www.w3.org/TR/2001/REC-SVG-20010904/DTD/svg10.dtd">
<svg version="1.0" xmlns="http://www.w3.org/2000/svg"
 width="512.000000pt" height="512.000000pt" viewBox="0 0 512.000000 512.000000"
 preserveAspectRatio="xMidYMid meet">
<metadata>
Created by potrace 1.14, written by Peter Selinger 2001-2017
</metadata>
<g transform="translate(0.000000,512.000000) scale(0.100000,-0.100000)"
fill="#000000" stroke="none">
<path d="M2530 4429 c0 -5 -5 -9 -11 -9 -18 0 -61 -51 -55 -65 3 -8 -2 -19 -9
-25 -8 -7 -13 -16 -10 -20 3 -4 -2 -13 -10 -20 -8 -7 -12 -16 -9 -21 3 -5 0
-9 -7 -9 -7 0 -9 -3 -6 -7 4 -3 -1 -12 -11 -20 -9 -8 -11 -11 -4 -8 11 6 11 3
0 -14 -7 -12 -17 -21 -22 -21 -4 0 -3 -7 4 -15 11 -13 10 -14 -5 -9 -14 6 -16
3 -10 -16 6 -20 5 -22 -11 -16 -10 4 -15 4 -11 0 4 -4 1 -14 -6 -22 -10 -13
-9 -14 1 -8 11 7 11 4 1 -12 -7 -12 -16 -19 -19 -17 -3 2 -7 -5 -8 -16 -1 -10
-3 -28 -4 -38 -1 -11 -5 -19 -9 -18 -4 1 -8 -2 -9 -8 -1 -5 -8 -17 -16 -26 -8
-9 -11 -19 -7 -22 3 -4 1 -7 -6 -7 -7 0 -10 -4 -6 -9 3 -5 -2 -16 -10 -25 -9
-9 -18 -26 -20 -38 -3 -13 -15 -31 -27 -40 -21 -16 -21 -18 -3 -12 19 5 19 5
3 -9 -10 -8 -15 -17 -11 -20 3 -4 1 -7 -6 -7 -7 0 -9 -4 -6 -10 3 -5 1 -10 -5
-10 -6 0 -10 -8 -8 -17 2 -10 -2 -18 -9 -18 -15 0 -30 -15 -15 -15 11 0 -14
-60 -31 -71 -5 -3 -8 -9 -8 -13 3 -19 0 -27 -8 -21 -5 3 -13 0 -17 -6 -4 -8
-3 -9 4 -5 15 9 15 1 1 -25 -5 -11 -15 -16 -21 -13 -7 4 -8 3 -4 -4 9 -15 -4
-63 -15 -56 -9 5 -13 -9 -10 -33 1 -6 -4 -15 -10 -19 -8 -5 -9 -3 -4 7 8 12 6
12 -8 0 -19 -15 -23 -26 -5 -15 8 5 9 2 5 -10 -4 -10 -7 -20 -7 -22 0 -3 -4
-3 -9 0 -5 4 -7 -4 -3 -16 4 -16 2 -20 -10 -16 -11 5 -14 0 -12 -17 1 -14 -4
-26 -13 -29 -8 -4 -13 -13 -9 -21 3 -8 2 -15 -3 -15 -5 0 -11 -9 -14 -21 -3
-12 -10 -18 -15 -15 -5 3 -8 -8 -7 -25 2 -23 -1 -29 -12 -25 -11 5 -13 2 -9
-10 5 -12 2 -15 -9 -10 -9 3 -14 2 -11 -3 3 -5 0 -14 -8 -20 -11 -9 -15 -9
-19 1 -3 8 -6 6 -6 -5 -1 -10 -5 -15 -11 -12 -5 3 -10 1 -10 -6 0 -6 -8 -9
-20 -6 -11 3 -18 1 -15 -3 3 -5 -4 -11 -15 -15 -11 -4 -18 -10 -15 -15 3 -4
-4 -6 -15 -3 -11 3 -20 1 -20 -5 0 -5 -11 -13 -25 -16 -14 -4 -25 -11 -25 -17
0 -6 -4 -7 -10 -4 -5 3 -10 1 -10 -5 0 -6 -4 -8 -10 -5 -5 3 -10 1 -10 -5 0
-7 -7 -9 -16 -6 -8 3 -12 2 -9 -4 3 -5 -6 -12 -20 -16 -15 -4 -22 -11 -18 -18
4 -6 -2 -4 -12 4 -17 14 -18 13 -12 -2 6 -17 4 -19 -35 -22 -7 -1 -18 -7 -24
-15 -6 -8 -18 -11 -27 -8 -11 4 -14 2 -11 -8 4 -10 0 -13 -15 -10 -13 2 -28
-5 -41 -22 -11 -15 -20 -20 -20 -12 0 11 -2 11 -10 -1 -5 -8 -14 -16 -20 -16
-5 -1 -15 -2 -21 -3 -5 0 -8 -5 -5 -9 3 -5 -11 -15 -30 -24 -23 -10 -34 -12
-35 -4 0 6 -4 1 -9 -11 -6 -15 -15 -21 -25 -17 -9 4 -15 1 -15 -9 0 -16 -30
-18 -43 -2 -4 6 -7 1 -5 -10 2 -15 -3 -20 -19 -19 -12 0 -21 -4 -20 -10 1 -6
-4 -10 -11 -8 -7 1 -15 -4 -18 -12 -3 -8 -12 -12 -19 -10 -7 3 -16 0 -21 -7
-5 -8 -3 -10 6 -4 8 5 11 4 7 -3 -8 -11 -25 -11 -44 1 -9 5 -11 3 -7 -7 5 -13
-29 -33 -49 -28 -5 1 -6 -2 -3 -7 5 -8 -29 -25 -47 -22 -4 1 -7 -3 -7 -8 0 -5
-9 -13 -20 -16 -11 -3 -20 -11 -20 -16 0 -5 -9 -19 -20 -31 -14 -15 -17 -25
-9 -34 7 -8 6 -14 -3 -17 -11 -4 -10 -6 0 -6 7 -1 10 -5 7 -11 -3 -5 -1 -10 5
-10 6 0 8 -4 5 -10 -3 -5 1 -10 10 -10 10 0 13 -5 9 -12 -4 -6 -3 -8 4 -4 6 3
17 0 25 -8 8 -8 18 -12 22 -8 5 4 5 -2 1 -12 -5 -16 -4 -17 9 -6 11 9 15 9 15
1 0 -7 4 -9 10 -6 5 3 10 1 10 -5 0 -6 4 -8 10 -5 5 3 10 1 10 -4 0 -6 7 -11
16 -11 8 0 12 -5 8 -11 -4 -6 1 -10 12 -8 26 4 96 -40 87 -54 -4 -7 1 -6 10 2
11 9 17 10 17 2 0 -6 7 -11 15 -11 8 0 15 -4 15 -10 0 -5 9 -10 21 -10 12 0
17 -4 14 -11 -4 -6 0 -9 11 -7 11 2 18 -2 17 -8 -1 -6 3 -11 10 -12 26 -2 47
-9 54 -17 4 -4 2 -5 -6 0 -10 5 -12 4 -7 -4 4 -6 12 -9 17 -5 6 3 17 -2 25
-12 9 -11 13 -13 9 -4 -6 13 -5 13 7 0 7 -8 20 -16 28 -18 8 -2 17 -8 18 -13
2 -5 15 -9 30 -9 14 0 22 -3 19 -7 -4 -3 1 -12 11 -19 13 -9 20 -10 31 -1 12
9 13 9 7 0 -4 -8 -2 -13 4 -13 14 0 41 -26 35 -34 -3 -3 -2 -4 2 -1 3 3 13 -1
21 -8 11 -8 13 -8 9 0 -5 7 0 9 13 6 10 -3 22 -14 26 -25 4 -14 8 -17 14 -8 5
8 9 7 14 -5 3 -9 10 -13 16 -10 5 3 10 1 10 -5 0 -6 4 -9 9 -5 5 3 17 -2 25
-11 9 -8 16 -12 16 -7 0 4 7 0 15 -11 7 -10 18 -15 24 -11 6 3 11 1 11 -5 0
-6 5 -8 10 -5 6 3 10 1 10 -4 0 -6 9 -11 20 -11 11 0 20 -7 20 -15 0 -8 6 -12
13 -9 7 2 22 -5 34 -16 12 -11 27 -20 32 -20 5 0 13 -5 17 -12 5 -7 2 -9 -7
-4 -8 4 -3 -1 11 -13 l25 -20 -25 5 -25 5 23 -12 c13 -7 21 -18 18 -26 -3 -8
-1 -11 4 -8 9 6 14 -8 11 -27 0 -5 4 -8 11 -8 6 0 9 -3 5 -6 -3 -4 1 -13 9
-22 13 -12 13 -16 2 -23 -10 -7 -9 -9 5 -9 9 0 17 -7 17 -15 0 -8 5 -15 11
-15 8 0 8 -4 0 -14 -10 -12 -8 -16 10 -21 17 -6 19 -9 8 -16 -10 -6 -11 -9 -1
-9 6 0 12 -7 12 -15 0 -8 5 -15 11 -15 5 0 7 -4 4 -10 -3 -5 -1 -10 4 -10 6 0
10 -3 9 -7 -3 -14 14 -43 22 -38 5 3 6 -5 2 -17 -3 -14 -1 -19 6 -14 8 5 10 1
5 -10 -4 -12 -3 -15 5 -10 8 5 10 2 6 -8 -3 -9 -1 -16 6 -16 6 0 8 -4 5 -10
-3 -5 -1 -10 4 -10 6 0 10 -3 10 -8 -3 -20 2 -32 12 -27 6 4 10 1 8 -6 -3 -29
1 -50 11 -44 6 3 10 -3 10 -14 0 -12 5 -21 11 -21 5 0 7 -4 4 -10 -3 -5 -1
-10 4 -10 6 0 11 -9 11 -20 0 -11 5 -20 11 -20 5 0 8 -4 5 -9 -4 -5 -1 -11 4
-13 6 -2 12 -13 13 -26 0 -12 5 -22 10 -22 5 0 6 -7 3 -16 -3 -8 -2 -12 4 -9
6 3 10 -1 10 -9 0 -9 4 -16 10 -16 5 0 7 -7 4 -15 -4 -8 1 -17 10 -21 9 -3 13
-10 10 -15 -3 -5 0 -9 6 -9 6 0 9 -4 5 -9 -3 -5 0 -15 7 -23 7 -7 14 -20 16
-28 2 -8 8 -17 13 -18 6 -3 5 -10 -2 -18 -10 -12 -8 -13 7 -7 17 6 17 5 5 -10
-12 -15 -12 -17 4 -11 13 5 16 4 11 -4 -4 -7 -2 -12 4 -12 6 0 9 -4 6 -9 -4
-5 -1 -11 4 -13 6 -2 12 -13 13 -26 0 -12 5 -22 10 -22 5 0 5 -10 2 -22 -5
-18 -4 -20 4 -8 6 8 11 13 12 10 0 -3 2 -16 5 -30 2 -14 11 -30 19 -36 8 -6
12 -14 8 -17 -3 -4 -1 -7 5 -7 7 0 12 -9 12 -20 0 -11 6 -20 13 -20 8 0 7 -4
-3 -10 -10 -6 -11 -10 -3 -10 17 0 55 -38 49 -48 -3 -4 5 -9 16 -9 12 -1 25
-8 29 -15 7 -10 9 -10 9 1 0 8 7 11 19 8 12 -3 22 1 25 10 3 8 11 11 17 7 8
-4 9 -3 5 4 -3 6 3 16 14 22 11 6 19 14 18 18 -2 12 15 47 31 60 9 8 10 11 4
7 -19 -9 -16 6 5 22 9 8 11 12 5 8 -23 -11 -3 22 20 34 16 8 17 10 3 6 -18 -5
-18 -4 -2 17 9 13 18 29 21 36 15 39 18 48 16 55 -1 5 3 6 8 3 5 -3 11 1 14 8
3 8 1 17 -6 20 -7 4 -2 4 10 2 20 -4 21 -2 12 16 -9 16 -8 19 2 13 9 -6 11 -4
6 8 -3 9 0 18 9 21 8 3 14 13 14 23 0 10 7 27 15 37 8 10 12 23 8 29 -4 6 -1
7 7 2 10 -6 12 -4 7 8 -3 9 1 18 10 21 9 4 13 9 10 13 -4 3 1 12 11 20 9 8 12
12 5 9 -6 -4 -15 -1 -19 6 -4 7 -4 10 1 6 9 -8 42 31 37 45 -1 4 3 7 9 7 5 0
7 5 4 10 -3 6 -1 10 5 10 6 0 8 5 5 10 -3 6 2 10 12 10 15 0 16 2 3 10 -12 8
-12 10 4 16 14 5 15 9 4 15 -10 7 -10 9 0 9 6 0 12 7 12 15 0 8 8 15 18 15 12
0 14 3 4 8 -9 7 -8 14 8 32 11 13 20 31 20 41 0 9 4 19 10 21 5 1 11 14 14 28
2 14 9 24 16 22 6 -1 9 2 5 7 -3 6 2 25 12 43 9 18 18 38 18 43 1 6 7 9 14 7
7 -1 9 2 6 8 -4 6 1 18 11 26 18 15 18 15 0 10 -16 -6 -17 -4 -6 9 7 8 17 12
24 8 6 -3 8 -3 4 2 -4 4 -2 15 5 23 9 13 9 14 0 8 -9 -5 -11 -2 -7 8 3 9 10
14 14 11 5 -3 11 -1 15 5 3 5 0 10 -7 10 -10 0 -10 2 1 9 7 5 10 14 7 20 -7
10 7 16 29 11 6 -1 5 4 -2 11 -9 9 -8 15 3 26 8 8 11 20 7 26 -4 6 0 8 9 4 10
-3 15 0 14 11 0 9 5 16 12 14 6 -1 12 4 12 12 0 8 11 17 25 20 16 4 23 11 19
18 -4 6 -3 8 4 4 6 -3 13 -2 17 4 4 6 11 8 16 5 5 -4 9 -1 9 4 0 6 6 10 13 9
6 -2 11 2 10 8 -1 7 8 9 24 6 22 -4 25 -2 19 14 -4 10 -4 15 0 11 4 -4 13 -2
21 5 7 6 16 8 19 5 4 -3 16 3 27 14 12 11 27 17 35 14 8 -3 10 0 6 7 -5 8 -2
9 9 5 10 -4 16 -2 14 6 -1 7 4 11 11 9 6 -1 12 2 12 8 0 6 3 9 8 9 20 -3 33 2
27 11 -4 7 3 9 19 6 17 -3 23 -1 20 8 -3 7 2 13 11 14 8 1 22 3 30 4 8 1 12 5
9 9 -2 4 0 10 6 14 5 3 10 1 10 -5 0 -6 11 0 23 14 19 20 26 23 37 13 9 -9 11
-9 6 0 -3 7 2 14 14 18 11 3 20 12 20 18 0 7 4 6 10 -3 8 -13 10 -12 10 3 0
10 5 15 10 12 6 -3 10 -1 10 5 0 6 5 8 10 5 6 -3 10 -1 10 5 0 6 5 8 10 5 6
-3 13 0 16 9 3 8 14 13 25 11 11 -2 17 0 14 6 -4 5 -1 9 4 9 23 0 27 2 46 19
31 28 50 37 41 20 -4 -8 2 -3 13 11 18 21 20 22 15 5 -3 -12 1 -9 11 8 8 15
18 27 21 27 3 0 2 -4 -1 -10 -11 -17 7 -11 21 8 9 11 13 13 14 4 0 -7 5 -10
10 -7 6 4 8 10 5 15 -3 4 2 11 11 14 10 4 13 2 8 -6 -4 -7 -3 -8 4 -4 7 4 12
15 12 24 0 15 2 15 10 2 8 -12 10 -12 10 -1 0 11 3 11 15 1 13 -11 14 -10 9 4
-6 14 5 21 29 17 4 0 6 2 5 6 -3 9 38 53 44 48 2 -2 4 14 5 36 0 21 -3 39 -8
39 -5 0 -9 5 -9 11 0 16 -42 48 -63 49 -10 0 -15 5 -12 10 3 6 -2 10 -12 10
-10 0 -29 9 -43 20 -14 11 -33 20 -42 20 -9 0 -21 7 -26 16 -5 9 -12 15 -15
15 -20 -3 -28 0 -22 9 3 6 -1 7 -9 4 -9 -3 -16 -1 -16 5 0 5 -18 15 -40 21
-22 6 -38 15 -35 20 4 6 -2 10 -12 10 -10 0 -31 11 -47 25 -34 29 -44 32 -25
8 8 -9 -2 -5 -22 10 -20 15 -38 24 -42 21 -3 -3 -10 4 -17 15 -6 12 -16 19
-21 15 -6 -3 -17 2 -25 12 -9 11 -12 12 -8 4 6 -11 2 -10 -13 3 -11 9 -23 14
-26 10 -4 -3 -7 1 -7 11 0 10 -5 14 -12 10 -6 -4 -17 1 -25 11 -7 11 -13 15
-13 9 0 -5 -5 -2 -10 6 -7 11 -10 12 -10 2 0 -10 -4 -9 -16 2 -8 9 -20 14 -25
10 -5 -3 -8 -2 -7 3 2 4 -1 9 -5 10 -4 1 -15 9 -24 18 -8 9 -22 14 -29 11 -7
-3 -18 3 -23 12 -6 9 -11 13 -11 9 0 -5 -7 -1 -16 7 -8 9 -20 14 -25 11 -5 -4
-9 1 -9 10 0 12 -6 15 -20 10 -14 -4 -20 -2 -20 8 0 7 -7 14 -15 15 -8 1 -22
3 -30 4 -8 1 -12 5 -9 9 2 4 0 10 -6 14 -5 3 -10 0 -10 -7 -1 -7 -6 -4 -13 8
-7 12 -18 19 -24 17 -7 -3 -13 0 -13 7 0 6 -5 8 -10 5 -6 -4 -10 -3 -9 2 3 19
-2 46 -7 40 -7 -7 -56 80 -57 101 0 6 -5 12 -10 12 -5 0 -6 7 -3 16 4 10 0 18
-12 21 -13 3 -18 13 -17 33 1 16 -2 27 -5 25 -4 -3 -14 3 -21 12 -12 14 -12
16 1 8 9 -5 8 0 -4 13 -11 12 -15 22 -10 22 5 0 4 4 -3 8 -6 4 -13 14 -15 22
-2 8 -9 21 -16 29 -7 7 -11 20 -8 28 3 8 1 11 -4 8 -6 -3 -10 3 -10 14 0 12
-5 21 -11 21 -5 0 -7 5 -4 10 3 6 1 10 -5 10 -6 0 -9 4 -6 9 3 5 -1 12 -10 15
-8 3 -12 10 -9 16 3 6 -1 17 -10 26 -9 9 -14 23 -11 31 3 8 1 11 -4 8 -9 -6
-14 14 -11 42 1 7 -5 10 -13 7 -8 -3 -17 0 -22 7 -4 8 -3 10 4 5 7 -4 12 -2
12 3 0 6 -4 11 -10 11 -5 0 -10 9 -10 20 0 11 -7 20 -15 20 -8 0 -12 6 -9 15
3 8 -4 28 -15 44 -12 16 -21 34 -21 40 0 6 -4 11 -10 11 -5 0 -7 7 -4 15 4 8
1 15 -6 15 -7 0 -10 6 -7 14 3 8 -1 17 -9 20 -9 3 -12 10 -9 16 3 5 1 10 -5
10 -6 0 -9 4 -5 9 3 5 0 16 -7 23 -22 24 -48 79 -42 89 3 5 -2 12 -10 15 -9 3
-13 10 -10 15 3 5 0 9 -5 9 -6 0 -11 11 -11 24 0 13 -7 27 -16 30 -8 3 -12 10
-9 16 3 5 1 10 -5 10 -6 0 -9 4 -6 9 3 5 -1 14 -9 21 -8 7 -15 23 -15 37 0 13
-4 22 -9 19 -4 -3 -13 6 -20 20 -6 14 -15 23 -20 20 -5 -4 -11 -2 -13 4 -4 12
-78 21 -78 9z m-1116 -1507 c3 -5 -1 -9 -9 -9 -8 0 -12 4 -9 9 3 4 7 8 9 8 2
0 6 -4 9 -8z"/>
<path d="M3679 2073 c-13 -16 -12 -17 4 -4 9 7 17 15 17 17 0 8 -8 3 -21 -13z"/>
<path d="M3466 1998 c3 -5 10 -6 15 -3 13 9 11 12 -6 12 -8 0 -12 -4 -9 -9z"/>
<path d="M3435 1971 c-3 -5 -2 -12 3 -15 5 -3 9 1 9 9 0 17 -3 19 -12 6z"/>
<path d="M3115 1600 c3 -5 8 -10 11 -10 2 0 4 5 4 10 0 6 -5 10 -11 10 -5 0
-7 -4 -4 -10z"/>
<path d="M2375 800 c-3 -5 -1 -10 4 -10 6 0 11 5 11 10 0 6 -2 10 -4 10 -3 0
-8 -4 -11 -10z"/>
</g>
</svg>
